<svg xmlns="http://www.w3.org/2000/svg" width="49" height="49" fill="none"><path fill="url(#a)" d="m36.776 21.196-7.072 6.834c-3.904 3.775-3.904 9.894.001 13.669 3.905 3.774 10.237 3.774 14.142 0 3.905-3.775 3.905-9.894 0-13.668l-.062-.06-7.01-6.775Z"/><path fill="url(#b)" d="M28.2 11.985a5.247 5.247 0 0 0-4.878-4.88 5.247 5.247 0 0 1-3.095-1.282 5.247 5.247 0 0 0-6.9 0 5.247 5.247 0 0 1-3.095 1.282 5.247 5.247 0 0 0-4.88 4.88 5.247 5.247 0 0 1-1.282 3.094 5.247 5.247 0 0 0 0 6.9 5.247 5.247 0 0 1 1.282 3.095 5.247 5.247 0 0 0 4.88 4.88c.712.048 1.452-.11 1.956-.614l15.399-15.4c.505-.504.662-1.243.614-1.955Z"/><path fill="#ABABAB" fill-rule="evenodd" d="m39.307 11.06-28 28-1.06-1.061 28-28 1.06 1.06Z" clip-rule="evenodd"/><defs><radialGradient id="b" cx="0" cy="0" r="1" gradientTransform="matrix(12.99486 15.74671 -18.1258 14.95819 6.435 8.022)" gradientUnits="userSpaceOnUse"><stop stop-color="#FFBB29"/><stop offset=".481" stop-color="#FCB224"/><stop offset=".99" stop-color="#E47100"/></radialGradient><linearGradient id="a" x1="36.776" x2="36.776" y1="21.196" y2="43.593" gradientUnits="userSpaceOnUse"><stop stop-color="#2E7AF5"/><stop offset="1" stop-color="#0B57D0"/></linearGradient></defs></svg>