<svg xmlns="http://www.w3.org/2000/svg" width="49" height="49" fill="none"><path fill="url(#a)" d="M36.776 20.365 29.705 27.2c-3.905 3.774-3.905 9.894 0 13.668 3.906 3.774 10.237 3.774 14.142 0 3.906-3.774 3.906-9.894 0-13.668l-.062-.06-7.01-6.775Z"/><path fill="url(#b)" d="M16.584 23.865H9.728v-.008l-.507.007h-.085c-3.24 0-5.86-2.607-5.86-5.815 0-3.209 2.62-5.816 5.86-5.816 1.125 0 2.174.314 3.065.858l.628.384.125-.726c.772-4.474 4.699-7.884 9.431-7.884a9.578 9.578 0 0 1 8.26 4.702.44.44 0 0 1-.088.532l-13.62 13.62a.5.5 0 0 1-.353.146Z"/><path stroke="url(#c)" d="M16.584 23.865H9.728v-.008l-.507.007h-.085c-3.24 0-5.86-2.607-5.86-5.815 0-3.209 2.62-5.816 5.86-5.816 1.125 0 2.174.314 3.065.858l.628.384.125-.726c.772-4.474 4.699-7.884 9.431-7.884a9.578 9.578 0 0 1 8.26 4.702.44.44 0 0 1-.088.532l-13.62 13.62a.5.5 0 0 1-.353.146Z"/><path stroke="url(#d)" d="M16.584 23.865H9.728v-.008l-.507.007h-.085c-3.24 0-5.86-2.607-5.86-5.815 0-3.209 2.62-5.816 5.86-5.816 1.125 0 2.174.314 3.065.858l.628.384.125-.726c.772-4.474 4.699-7.884 9.431-7.884a9.578 9.578 0 0 1 8.26 4.702.44.44 0 0 1-.088.532l-13.62 13.62a.5.5 0 0 1-.353.146Z"/><path fill="#ABABAB" fill-rule="evenodd" d="m39.307 10.896-28 28-1.06-1.061 28-28 1.06 1.06Z" clip-rule="evenodd"/><defs><linearGradient id="a" x1="36.777" x2="36.777" y1="20.365" y2="42.762" gradientUnits="userSpaceOnUse"><stop stop-color="#2E7AF5"/><stop offset="1" stop-color="#0B57D0"/></linearGradient><linearGradient id="c" x1="20.834" x2="25.453" y1="13.72" y2="23.272" gradientUnits="userSpaceOnUse"><stop stop-color="#80868B" stop-opacity="0"/><stop offset="1" stop-color="#80868B"/></linearGradient><linearGradient id="d" x1="27.995" x2="5.066" y1="4.365" y2="12.853" gradientUnits="userSpaceOnUse"><stop stop-color="#81878C"/><stop offset="1" stop-color="#C3C5C6" stop-opacity="0"/></linearGradient><radialGradient id="b" cx="0" cy="0" r="1" gradientTransform="matrix(-15.81312 -16.52784 39.72192 -38.00422 26.645 22.664)" gradientUnits="userSpaceOnUse"><stop stop-color="#B4B4B4"/><stop offset=".298" stop-color="#B4B4B4"/><stop offset="1" stop-color="#E3E3E3"/></radialGradient></defs></svg>