<svg xmlns="http://www.w3.org/2000/svg" viewBox="0 0 48 48" fill="none"><path fill="url(#a)" fill-opacity=".95" fill-rule="evenodd" d="M47 16.5c0 8.358-6.662 15.171-15 15.488V32H11v-.002h-.143C5.413 31.999 1 27.617 1 22.21c0-5.406 4.413-9.789 9.857-9.789 1.89 0 3.654.528 5.154 1.444C17.271 6.559 23.679 1 31.393 1 40.013 1 47 7.94 47 16.5Z" clip-rule="evenodd"/><path fill="#474747" d="m9.44 23.735 5.44 5.439-5.44 5.44L4 29.173z"/><path fill="#0B57D0" d="m23.5 37-3.182 2.929c-1.757 1.617-1.757 4.24 0 5.858 1.758 1.617 4.607 1.617 6.364 0 1.757-1.618 1.757-4.24 0-5.858l-.028-.026L23.5 37Z"/><path fill="#5E5E5E" d="m28.48 21.015 2.72 2.72-16.32 16.318-2.72-2.72zM35.28 27.814 38 30.533l-8.16 8.159-2.72-2.72z"/><defs><radialGradient id="a" cx="0" cy="0" r="1" gradientTransform="rotate(-134.751 25.785 6.485) scale(36.0727 86.776)" gradientUnits="userSpaceOnUse"><stop offset=".298" stop-color="#B4B4B4"/><stop offset="1" stop-color="#E3E3E3"/></radialGradient></defs></svg>