<svg xmlns="http://www.w3.org/2000/svg" width="49" height="49" fill="none"><g clip-path="url(#a)"><path fill="#757575" fill-rule="evenodd" d="M18.582 17.183a.3.3 0 0 1 .14.182l.958 3.575a.3.3 0 0 0 .367.213l1.932-.518a.3.3 0 0 0 .212-.368l-.715-2.67a.3.3 0 0 1 .212-.367l2.67-.715a.3.3 0 0 0 .212-.368l-.518-1.931a.3.3 0 0 0-.367-.213l-3.575.958a.3.3 0 0 1-.228-.03l-1.49-.86a.313.313 0 0 1-.148-.331 4.643 4.643 0 0 0 .002-1.723.313.313 0 0 1 .147-.33l1.489-.86a.3.3 0 0 1 .227-.03l3.576.958a.3.3 0 0 0 .367-.212l.518-1.932a.3.3 0 0 0-.212-.367l-2.67-.715a.3.3 0 0 1-.212-.368l.715-2.67a.3.3 0 0 0-.212-.367l-1.932-.518a.3.3 0 0 0-.367.212l-.958 3.575a.3.3 0 0 1-.14.183L17.1 9.43a.313.313 0 0 1-.362-.04 4.612 4.612 0 0 0-1.499-.873.313.313 0 0 1-.213-.293V6.524a.3.3 0 0 1 .088-.213l2.618-2.617a.3.3 0 0 0 0-.424l-1.415-1.414a.3.3 0 0 0-.424 0L13.94 3.81a.3.3 0 0 1-.425 0l-1.954-1.954a.3.3 0 0 0-.424 0L9.722 3.27a.3.3 0 0 0 0 .424l2.618 2.617a.3.3 0 0 1 .088.213v1.688c0 .134-.09.25-.216.294a4.611 4.611 0 0 0-1.52.874.313.313 0 0 1-.36.038l-1.459-.842a.3.3 0 0 1-.14-.182l-.958-3.576a.3.3 0 0 0-.367-.212l-1.932.518a.3.3 0 0 0-.212.367l.715 2.67a.3.3 0 0 1-.212.368l-2.67.715a.3.3 0 0 0-.212.367l.518 1.932a.3.3 0 0 0 .367.212l3.576-.958a.3.3 0 0 1 .227.03l1.456.84a.313.313 0 0 1 .147.333 4.64 4.64 0 0 0 .002 1.757.313.313 0 0 1-.147.333l-1.458.841a.3.3 0 0 1-.227.03l-3.576-.957a.3.3 0 0 0-.367.212l-.518 1.932a.3.3 0 0 0 .212.367l2.67.715a.3.3 0 0 1 .212.368l-.715 2.67a.3.3 0 0 0 .212.367l1.932.518a.3.3 0 0 0 .367-.212l.958-3.576a.3.3 0 0 1 .14-.182l1.467-.847a.313.313 0 0 1 .36.038c.44.379.952.676 1.512.868.127.043.216.16.216.293v1.7a.3.3 0 0 1-.088.212l-2.618 2.618a.3.3 0 0 0 0 .424l1.415 1.414a.3.3 0 0 0 .424 0l1.954-1.954a.3.3 0 0 1 .425 0l1.954 1.954a.3.3 0 0 0 .424 0l1.415-1.414a.3.3 0 0 0 0-.424l-2.618-2.618a.3.3 0 0 1-.088-.212v-1.712c0-.133.088-.249.213-.293a4.612 4.612 0 0 0 1.492-.867.313.313 0 0 1 .361-.04l1.489.86Zm-4.873-6.325a2.016 2.016 0 1 0 0 4.032 2.016 2.016 0 0 0 0-4.032Z" clip-rule="evenodd"/><path fill="#ABABAB" fill-rule="evenodd" d="m39.307 10.567-28 28-1.06-1.06 28-28 1.06 1.06Z" clip-rule="evenodd"/><path fill="url(#b)" d="M37.99 41.536H26.27v-.008l-.508.007h-.077c-2.628 0-4.808-1.886-5.249-4.363l6.098-6.149a5.318 5.318 0 0 1 1.938.714l.628.383.125-.725c.705-4.082 4.288-7.193 8.605-7.193 4.825 0 8.73 3.884 8.73 8.667 0 4.67-3.723 8.483-8.39 8.66l-.18.007Z"/><path stroke="url(#c)" d="M37.99 41.536H26.27v-.008l-.508.007h-.077c-2.628 0-4.808-1.886-5.249-4.363l6.098-6.149a5.318 5.318 0 0 1 1.938.714l.628.383.125-.725c.705-4.082 4.288-7.193 8.605-7.193 4.825 0 8.73 3.884 8.73 8.667 0 4.67-3.723 8.483-8.39 8.66l-.18.007Z"/><path stroke="url(#d)" d="M37.99 41.536H26.27v-.008l-.508.007h-.077c-2.628 0-4.808-1.886-5.249-4.363l6.098-6.149a5.318 5.318 0 0 1 1.938.714l.628.383.125-.725c.705-4.082 4.288-7.193 8.605-7.193 4.825 0 8.73 3.884 8.73 8.667 0 4.67-3.723 8.483-8.39 8.66l-.18.007Z"/></g><defs><linearGradient id="c" x1="37.024" x2="41.169" y1="32.278" y2="41.143" gradientUnits="userSpaceOnUse"><stop stop-color="#80868B" stop-opacity="0"/><stop offset="1" stop-color="#80868B"/></linearGradient><linearGradient id="d" x1="43.813" x2="22.255" y1="23.702" y2="31.956" gradientUnits="userSpaceOnUse"><stop stop-color="#81878C"/><stop offset="1" stop-color="#C3C5C6" stop-opacity="0"/></linearGradient><radialGradient id="b" cx="0" cy="0" r="1" gradientTransform="rotate(-134.699 29.712 11.364) scale(21.3151 51.2745)" gradientUnits="userSpaceOnUse"><stop stop-color="#B4B4B4"/><stop offset=".298" stop-color="#B4B4B4"/><stop offset="1" stop-color="#E3E3E3"/></radialGradient><clipPath id="a"><path fill="#fff" d="M.777.037h48v48h-48z"/></clipPath></defs></svg>