<svg xmlns="http://www.w3.org/2000/svg" width="49" height="49" fill="none"><g clip-path="url(#a)"><path fill="#757575" fill-rule="evenodd" d="M18.213 17.821a.3.3 0 0 1 .14.182l.958 3.575a.3.3 0 0 0 .367.213l1.932-.518a.3.3 0 0 0 .212-.368l-.715-2.67a.3.3 0 0 1 .212-.367l2.67-.715a.3.3 0 0 0 .212-.368l-.518-1.931a.3.3 0 0 0-.367-.213l-3.575.958a.3.3 0 0 1-.228-.03l-1.49-.86a.313.313 0 0 1-.147-.331 4.634 4.634 0 0 0 .001-1.723.313.313 0 0 1 .148-.33l1.488-.86a.3.3 0 0 1 .228-.03l3.575.958a.3.3 0 0 0 .367-.212l.518-1.932a.3.3 0 0 0-.212-.367l-2.67-.716a.3.3 0 0 1-.212-.367l.715-2.67a.3.3 0 0 0-.212-.367l-1.932-.518a.3.3 0 0 0-.367.212l-.958 3.575a.3.3 0 0 1-.14.183l-1.48.855a.313.313 0 0 1-.362-.04 4.612 4.612 0 0 0-1.5-.873.313.313 0 0 1-.212-.293V7.162a.3.3 0 0 1 .088-.213l2.617-2.617a.3.3 0 0 0 0-.424L15.95 2.494a.3.3 0 0 0-.425 0l-1.954 1.954a.3.3 0 0 1-.424 0l-1.955-1.954a.3.3 0 0 0-.424 0L9.354 3.908a.3.3 0 0 0 0 .424L11.97 6.95a.3.3 0 0 1 .088.213V8.85c0 .134-.089.25-.215.294a4.612 4.612 0 0 0-1.52.873.313.313 0 0 1-.36.04l-1.46-.843a.3.3 0 0 1-.14-.183l-.957-3.575a.3.3 0 0 0-.368-.212l-1.932.518a.3.3 0 0 0-.212.367l.716 2.67a.3.3 0 0 1-.212.368l-2.67.715a.3.3 0 0 0-.212.367l.517 1.932a.3.3 0 0 0 .368.212l3.575-.958a.3.3 0 0 1 .227.03l1.456.84a.313.313 0 0 1 .147.333 4.64 4.64 0 0 0 .002 1.757.313.313 0 0 1-.147.333l-1.458.841a.3.3 0 0 1-.227.03l-3.575-.958a.3.3 0 0 0-.368.213l-.517 1.931a.3.3 0 0 0 .212.368l2.67.715a.3.3 0 0 1 .212.368l-.716 2.67a.3.3 0 0 0 .212.367l1.932.518a.3.3 0 0 0 .368-.213l.958-3.575a.3.3 0 0 1 .14-.182l1.466-.847a.313.313 0 0 1 .36.038c.44.379.952.676 1.513.868.126.043.215.16.215.293v1.7a.3.3 0 0 1-.088.212l-2.617 2.618a.3.3 0 0 0 0 .424l1.414 1.414a.3.3 0 0 0 .424 0l1.955-1.954a.3.3 0 0 1 .424 0l1.954 1.954a.3.3 0 0 0 .425 0l1.414-1.414a.3.3 0 0 0 0-.424l-2.617-2.618a.3.3 0 0 1-.088-.212v-1.712c0-.133.087-.25.213-.293A4.612 4.612 0 0 0 16.363 17a.313.313 0 0 1 .361-.04l1.49.86Zm-4.872-6.325a2.016 2.016 0 1 0 0 4.032 2.016 2.016 0 0 0 0-4.032Z" clip-rule="evenodd"/><path fill="#ABABAB" fill-rule="evenodd" d="m39.307 11.179-28 28-1.06-1.06 28-28 1.06 1.06Z" clip-rule="evenodd"/><path fill="url(#b)" d="m36.774 21.315-7.07 6.834c-3.905 3.775-3.905 9.895 0 13.669 3.905 3.774 10.237 3.774 14.142 0 3.905-3.774 3.905-9.894 0-13.668l-.062-.06-7.01-6.775Z"/></g><defs><linearGradient id="b" x1="36.775" x2="36.775" y1="21.315" y2="43.712" gradientUnits="userSpaceOnUse"><stop stop-color="#2E7AF5"/><stop offset="1" stop-color="#0B57D0"/></linearGradient><clipPath id="a"><path fill="#fff" d="M.777.648h48v48h-48z"/></clipPath></defs></svg>