<svg width="48" height="48" viewBox="0 0 48 48" fill="none" xmlns="http://www.w3.org/2000/svg"><path d="M18.325 4.941A7.873 7.873 0 0 1 26.83 3.74a9.917 9.917 0 0 0-1.964 5.938v18.239a12.197 12.197 0 0 0-2.307 6.585l-.013.577c0 3.685 1.63 6.972 4.197 9.222a7.871 7.871 0 0 1-8.418-1.24 7.872 7.872 0 0 0-4.642-1.923 7.87 7.87 0 0 1-7.319-7.32 7.871 7.871 0 0 0-1.923-4.64 7.871 7.871 0 0 1 0-10.352 7.872 7.872 0 0 0 1.923-4.642 7.87 7.87 0 0 1 7.319-7.32 7.872 7.872 0 0 0 4.642-1.922z" fill="#FD5B00"/><path fill-rule="evenodd" clip-rule="evenodd" d="M35.955 3c3.99 0 7.225 3.203 7.225 7.153v19.231a9.365 9.365 0 0 1 2.28 5.288l.034.51v.06l.005.26.002.025v.027c0 5.221-4.286 9.446-9.546 9.446s-9.545-4.225-9.545-9.446c0-2.363.881-4.519 2.32-6.168V10.154C28.73 6.204 31.965 3 35.955 3zm0 2.79c-2.368 0-4.287 1.899-4.287 4.242v20.552a6.493 6.493 0 0 0-2.32 4.97c0 3.61 2.965 6.535 6.606 6.536 3.641 0 6.606-2.926 6.606-6.536l-.004-.259a6.495 6.495 0 0 0-2.316-4.711V10.032c0-2.343-1.919-4.243-4.286-4.243z" fill="#E8EAED"/><path d="M35.955 10.64a1.34 1.34 0 0 1 1.347 1.333v20.21c1.358.532 2.32 1.843 2.32 3.372 0 1.999-1.645 3.626-3.667 3.626-2.021 0-3.667-1.627-3.667-3.626 0-1.53.963-2.84 2.32-3.373v-20.21a1.34 1.34 0 0 1 1.347-1.333z" fill="#FD5B00"/></svg>