<svg xmlns="http://www.w3.org/2000/svg" viewBox="594 594 1024 1024" class="fox-alarm-cog-svg fox-alarm-cog-svg--single" aria-hidden="true">
  <g class="fox-alarm-cog-gear fox-alarm-cog-gear--green" data-pivot="512 512">
    <g transform="matrix(0.8079075813293457,-0.5893091559410095,0.5893091559410095,0.8079075813293457,1106.001953125,1106.001953125)">
    <path fill="#f5ffed" d="M178.95799255371094,-73.39199829101562 C138.21800231933594,-171.7449951171875 25.468000411987305,-218.447998046875 -72.88200378417969,-177.7100067138672 C-171.2270050048828,-136.97300720214844 -217.9290008544922,-24.222000122070312 -177.19200134277344,74.12799835205078 C-136.4550018310547,172.47799682617188 -23.70199966430664,219.17799377441406 74.64800262451172,178.43800354003906 C172.98800659179688,137.697998046875 219.697998046875,24.947999954223633 178.95799255371094,-73.39199829101562z M443.9880065917969,60.36800003051758 C442.9779968261719,67.72799682617188 436.8479919433594,73.24800109863281 429.447998046875,73.73799896240234 C429.447998046875,73.73799896240234 349.51800537109375,79.06800079345703 349.51800537109375,79.06800079345703 C340.68798828125,118.25800323486328 325.2070007324219,156.25799560546875 303.0769958496094,191.25799560546875 C303.0769958496094,191.25799560546875 355.8080139160156,251.51800537109375 355.8080139160156,251.51800537109375 C360.697998046875,257.1080017089844 361.1180114746094,265.3479919433594 356.62799072265625,271.25799560546875 C332.4679870605469,303.0880126953125 303.87799072265625,331.89801025390625 271.2879943847656,356.6579895019531 C265.37799072265625,361.14801025390625 257.13800048828125,360.7179870605469 251.54800415039062,355.8280029296875 C251.54800415039062,355.8280029296875 191.25799560546875,303.0769958496094 191.25799560546875,303.0769958496094 C156.25799560546875,325.2070007324219 118.25800323486328,340.68798828125 79.06800079345703,349.51800537109375 C79.06800079345703,349.51800537109375 73.73799896240234,429.4779968261719 73.73799896240234,429.4779968261719 C73.24800109863281,436.88800048828125 67.71800231933594,443.01800537109375 60.358001708984375,444.02801513671875 C19.81800079345703,449.5679931640625 -20.781999588012695,449.4079895019531 -60.37200164794922,443.9880065917969 C-67.72200012207031,442.9779968261719 -73.25199890136719,436.8479919433594 -73.74199676513672,429.447998046875 C-73.74199676513672,429.447998046875 -79.0719985961914,349.51800537109375 -79.0719985961914,349.51800537109375 C-118.26499938964844,340.68798828125 -156.26100158691406,325.2070007324219 -191.25900268554688,303.0769958496094 C-191.25900268554688,303.0769958496094 -251.52099609375,355.8080139160156 -251.52099609375,355.8080139160156 C-257.1090087890625,360.697998046875 -265.34698486328125,361.1180114746094 -271.260986328125,356.62799072265625 C-303.0899963378906,332.4679870605469 -331.90399169921875,303.87799072265625 -356.6579895019531,271.2879943847656 C-361.1499938964844,265.37799072265625 -360.7239990234375,257.13800048828125 -355.8340148925781,251.54800415039062 C-355.8340148925781,251.54800415039062 -303.0790100097656,191.25799560546875 -303.0790100097656,191.25799560546875 C-325.2099914550781,156.25799560546875 -340.6889953613281,118.25800323486328 -349.5169982910156,79.06800079345703 C-349.5169982910156,79.06800079345703 -429.4849853515625,73.73799896240234 -429.4849853515625,73.73799896240234 C-436.8949890136719,73.24800109863281 -443.0220031738281,67.71800231933594 -444.0270080566406,60.358001708984375 C-449.5669860839844,19.81800079345703 -449.4100036621094,-20.781999588012695 -443.989013671875,-60.37200164794922 C-442.98199462890625,-67.73200225830078 -436.8550109863281,-73.25199890136719 -429.4460144042969,-73.74199676513672 C-429.4460144042969,-73.74199676513672 -349.5169982910156,-79.0719985961914 -349.5169982910156,-79.0719985961914 C-340.6889953613281,-118.26499938964844 -325.2099914550781,-156.26100158691406 -303.0790100097656,-191.25900268554688 C-303.0790100097656,-191.25900268554688 -355.8080139160156,-251.52099609375 -355.8080139160156,-251.52099609375 C-360.697998046875,-257.1099853515625 -361.125,-265.34698486328125 -356.635009765625,-271.260986328125 C-332.47198486328125,-303.09100341796875 -303.8810119628906,-331.90399169921875 -271.2919921875,-356.6579895019531 C-265.37799072265625,-361.1499938964844 -257.1390075683594,-360.7239990234375 -251.5500030517578,-355.8340148925781 C-251.5500030517578,-355.8340148925781 -191.25900268554688,-303.0790100097656 -191.25900268554688,-303.0790100097656 C-156.26100158691406,-325.2099914550781 -118.26499938964844,-340.6889953613281 -79.0719985961914,-349.5169982910156 C-79.0719985961914,-349.5169982910156 -73.74199676513672,-429.4849853515625 -73.74199676513672,-429.4849853515625 C-73.25199890136719,-436.8949890136719 -67.72200012207031,-443.0220031738281 -60.36199951171875,-444.0270080566406 C-19.812000274658203,-449.5669860839844 20.777999877929688,-449.4100036621094 60.36800003051758,-443.989013671875 C67.72799682617188,-442.98199462890625 73.24800109863281,-436.8559875488281 73.73799896240234,-429.4460144042969 C73.73799896240234,-429.4460144042969 79.06800079345703,-349.5169982910156 79.06800079345703,-349.5169982910156 C118.25800323486328,-340.69000244140625 156.25799560546875,-325.2099914550781 191.25799560546875,-303.0790100097656 C191.25799560546875,-303.0790100097656 251.51800537109375,-355.8080139160156 251.51800537109375,-355.8080139160156 C257.1080017089844,-360.697998046875 265.3479919433594,-361.125 271.25799560546875,-356.635009765625 C303.0880126953125,-332.4729919433594 331.89801025390625,-303.8810119628906 356.6579895019531,-271.2919921875 C361.14801025390625,-265.37799072265625 360.7179870605469,-257.1390075683594 355.8280029296875,-251.55099487304688 C355.8280029296875,-251.55099487304688 303.0769958496094,-191.25900268554688 303.0769958496094,-191.25900268554688 C325.2070007324219,-156.26100158691406 340.68798828125,-118.26499938964844 349.51800537109375,-79.0719985961914 C349.51800537109375,-79.0719985961914 429.4779968261719,-73.74199676513672 429.4779968261719,-73.74199676513672 C436.88800048828125,-73.25199890136719 443.01800537109375,-67.72200012207031 444.02801513671875,-60.36199951171875 C449.5679931640625,-19.812000274658203 449.4079895019531,20.777999877929688 443.9880065917969,60.36800003051758z"/>
    <path fill="#b8eb8f" d="M74.64800262451172,178.43800354003906 C172.98800659179688,137.697998046875 219.697998046875,24.947999954223633 178.95799255371094,-73.39199829101562 C138.21800231933594,-171.7449951171875 25.468000411987305,-218.447998046875 -72.88200378417969,-177.7100067138672 C-171.2270050048828,-136.97300720214844 -217.9290008544922,-24.222000122070312 -177.19200134277344,74.12799835205078 C-136.4550018310547,172.47799682617188 -23.70199966430664,219.17799377441406 74.64800262451172,178.43800354003906z M188.197998046875,-77.22200012207031 C231.04800415039062,26.22800064086914 181.91799926757812,144.8280029296875 78.46800231933594,187.67799377441406 C-24.98200035095215,230.5279998779297 -143.58099365234375,181.4080047607422 -186.43099975585938,77.947998046875 C-229.28199768066406,-25.50200080871582 -180.156005859375,-144.0989990234375 -76.7020034790039,-186.94900512695312 C26.74799919128418,-229.8000030517578 145.34800720214844,-180.6739959716797 188.197998046875,-77.22200012207031z M303.0769958496094,191.25799560546875 C325.2070007324219,156.25799560546875 340.68798828125,118.25800323486328 349.51800537109375,79.06800079345703 C349.51800537109375,79.06800079345703 429.447998046875,73.73799896240234 429.447998046875,73.73799896240234 C436.8479919433594,73.24800109863281 442.9779968261719,67.72799682617188 443.9880065917969,60.36800003051758 C449.4079895019531,20.777999877929688 449.5679931640625,-19.812000274658203 444.02801513671875,-60.36199951171875 C443.01800537109375,-67.72200012207031 436.88800048828125,-73.25199890136719 429.4779968261719,-73.74199676513672 C429.4779968261719,-73.74199676513672 349.51800537109375,-79.0719985961914 349.51800537109375,-79.0719985961914 C340.68798828125,-118.26499938964844 325.2070007324219,-156.26100158691406 303.0769958496094,-191.25900268554688 C303.0769958496094,-191.25900268554688 355.8280029296875,-251.55099487304688 355.8280029296875,-251.55099487304688 C360.7179870605469,-257.1390075683594 361.14801025390625,-265.37799072265625 356.6579895019531,-271.2919921875 C331.89801025390625,-303.8810119628906 303.0880126953125,-332.4729919433594 271.25799560546875,-356.635009765625 C265.3479919433594,-361.125 257.1080017089844,-360.697998046875 251.51800537109375,-355.8080139160156 C251.51800537109375,-355.8080139160156 191.25799560546875,-303.0790100097656 191.25799560546875,-303.0790100097656 C156.25799560546875,-325.2099914550781 118.25800323486328,-340.69000244140625 79.06800079345703,-349.5169982910156 C79.06800079345703,-349.5169982910156 73.73799896240234,-429.4460144042969 73.73799896240234,-429.4460144042969 C73.24800109863281,-436.8559875488281 67.72799682617188,-442.98199462890625 60.36800003051758,-443.989013671875 C20.777999877929688,-449.4100036621094 -19.812000274658203,-449.5669860839844 -60.36199951171875,-444.0270080566406 C-67.72200012207031,-443.0220031738281 -73.25199890136719,-436.8949890136719 -73.74199676513672,-429.4849853515625 C-73.74199676513672,-429.4849853515625 -79.0719985961914,-349.5169982910156 -79.0719985961914,-349.5169982910156 C-118.26499938964844,-340.6889953613281 -156.26100158691406,-325.2099914550781 -191.25900268554688,-303.0790100097656 C-191.25900268554688,-303.0790100097656 -251.5500030517578,-355.8340148925781 -251.5500030517578,-355.8340148925781 C-257.1390075683594,-360.7239990234375 -265.37799072265625,-361.1499938964844 -271.2919921875,-356.6579895019531 C-303.8810119628906,-331.90399169921875 -332.47198486328125,-303.09100341796875 -356.635009765625,-271.260986328125 C-361.125,-265.34698486328125 -360.697998046875,-257.1099853515625 -355.8080139160156,-251.52099609375 C-355.8080139160156,-251.52099609375 -303.0790100097656,-191.25900268554688 -303.0790100097656,-191.25900268554688 C-325.2099914550781,-156.26100158691406 -340.6889953613281,-118.26499938964844 -349.5169982910156,-79.0719985961914 C-349.5169982910156,-79.0719985961914 -429.4460144042969,-73.74199676513672 -429.4460144042969,-73.74199676513672 C-436.8550109863281,-73.25199890136719 -442.98199462890625,-67.73200225830078 -443.989013671875,-60.37200164794922 C-449.4100036621094,-20.781999588012695 -449.5669860839844,19.81800079345703 -444.0270080566406,60.358001708984375 C-443.0220031738281,67.71800231933594 -436.8949890136719,73.24800109863281 -429.4849853515625,73.73799896240234 C-429.4849853515625,73.73799896240234 -349.5169982910156,79.06800079345703 -349.5169982910156,79.06800079345703 C-340.6889953613281,118.25800323486328 -325.2099914550781,156.25799560546875 -303.0790100097656,191.25799560546875 C-303.0790100097656,191.25799560546875 -355.8340148925781,251.54800415039062 -355.8340148925781,251.54800415039062 C-360.7239990234375,257.13800048828125 -361.1499938964844,265.37799072265625 -356.6579895019531,271.2879943847656 C-331.90399169921875,303.87799072265625 -303.0899963378906,332.4679870605469 -271.260986328125,356.62799072265625 C-265.34698486328125,361.1180114746094 -257.1090087890625,360.697998046875 -251.52099609375,355.8080139160156 C-251.52099609375,355.8080139160156 -191.25900268554688,303.0769958496094 -191.25900268554688,303.0769958496094 C-156.26100158691406,325.2070007324219 -118.26499938964844,340.68798828125 -79.0719985961914,349.51800537109375 C-79.0719985961914,349.51800537109375 -73.74199676513672,429.447998046875 -73.74199676513672,429.447998046875 C-73.25199890136719,436.8479919433594 -67.72200012207031,442.9779968261719 -60.37200164794922,443.9880065917969 C-20.781999588012695,449.4079895019531 19.81800079345703,449.5679931640625 60.358001708984375,444.02801513671875 C67.71800231933594,443.01800537109375 73.24800109863281,436.88800048828125 73.73799896240234,429.4779968261719 C73.73799896240234,429.4779968261719 79.06800079345703,349.51800537109375 79.06800079345703,349.51800537109375 C118.25800323486328,340.68798828125 156.25799560546875,325.2070007324219 191.25799560546875,303.0769958496094 C191.25799560546875,303.0769958496094 251.54800415039062,355.8280029296875 251.54800415039062,355.8280029296875 C257.13800048828125,360.7179870605469 265.37799072265625,361.14801025390625 271.2879943847656,356.6579895019531 C303.87799072265625,331.89801025390625 332.4679870605469,303.0880126953125 356.62799072265625,271.25799560546875 C361.1180114746094,265.3479919433594 360.697998046875,257.1080017089844 355.8080139160156,251.51800537109375 C355.8080139160156,251.51800537109375 303.0769958496094,191.25799560546875 303.0769958496094,191.25799560546875z M341.39801025390625,69.58799743652344 C341.39801025390625,69.58799743652344 339.75799560546875,76.86799621582031 339.75799560546875,76.86799621582031 C331.1780090332031,114.96800231933594 316.12799072265625,151.8979949951172 294.62799072265625,185.9080047607422 C294.62799072265625,185.9080047607422 290.63800048828125,192.21800231933594 290.63800048828125,192.21800231933594 C290.63800048828125,192.21800231933594 348.27801513671875,258.1080017089844 348.27801513671875,258.1080017089844 C350.1579895019531,260.24798583984375 350.18798828125,263.2179870605469 348.6679992675781,265.2080078125 C325.0480041503906,296.3280029296875 297.0979919433594,324.49798583984375 265.2380065917969,348.68798828125 C263.24798583984375,350.2080078125 260.27801513671875,350.18798828125 258.12799072265625,348.3080139160156 C258.12799072265625,348.3080139160156 192.21800231933594,290.63800048828125 192.21800231933594,290.63800048828125 C192.21800231933594,290.63800048828125 185.9080047607422,294.62799072265625 185.9080047607422,294.62799072265625 C151.8979949951172,316.12799072265625 114.96800231933594,331.1780090332031 76.86799621582031,339.75799560546875 C76.86799621582031,339.75799560546875 69.58799743652344,341.39801025390625 69.58799743652344,341.39801025390625 C69.58799743652344,341.39801025390625 63.757999420166016,428.8179931640625 63.757999420166016,428.8179931640625 C63.56800079345703,431.6579895019531 61.487998962402344,433.77801513671875 59.007999420166016,434.1180114746094 C19.378000259399414,439.52801513671875 -20.302000045776367,439.37701416015625 -59.012001037597656,434.0769958496094 C-61.50199890136719,433.73699951171875 -63.571998596191406,431.62799072265625 -63.762001037597656,428.77801513671875 C-63.762001037597656,428.77801513671875 -69.59200286865234,341.39801025390625 -69.59200286865234,341.39801025390625 C-69.59200286865234,341.39801025390625 -76.87200164794922,339.75799560546875 -76.87200164794922,339.75799560546875 C-114.9729995727539,331.1780090332031 -151.90199279785156,316.12799072265625 -185.9149932861328,294.62799072265625 C-185.9149932861328,294.62799072265625 -192.22500610351562,290.63800048828125 -192.22500610351562,290.63800048828125 C-192.22500610351562,290.63800048828125 -258.1059875488281,348.27801513671875 -258.1059875488281,348.27801513671875 C-260.25201416015625,350.1579895019531 -263.2179870605469,350.18798828125 -265.2149963378906,348.6679992675781 C-296.3320007324219,325.0480041503906 -324.49798583984375,297.0979919433594 -348.69500732421875,265.2380065917969 C-350.21099853515625,263.24798583984375 -350.1860046386719,260.27801513671875 -348.3080139160156,258.12799072265625 C-348.3080139160156,258.12799072265625 -290.6369934082031,192.21800231933594 -290.6369934082031,192.21800231933594 C-290.6369934082031,192.21800231933594 -294.62701416015625,185.9080047607422 -294.62701416015625,185.9080047607422 C-316.135009765625,151.8979949951172 -331.17999267578125,114.96800231933594 -339.760986328125,76.86799621582031 C-339.760986328125,76.86799621582031 -341.4020080566406,69.58799743652344 -341.4020080566406,69.58799743652344 C-341.4020080566406,69.58799743652344 -428.82000732421875,63.757999420166016 -428.82000732421875,63.757999420166016 C-431.6650085449219,63.56800079345703 -433.7799987792969,61.487998962402344 -434.1189880371094,59.007999420166016 C-439.53399658203125,19.378000259399414 -439.3810119628906,-20.302000045776367 -434.08099365234375,-59.012001037597656 C-433.7409973144531,-61.50199890136719 -431.6260070800781,-63.571998596191406 -428.781005859375,-63.762001037597656 C-428.781005859375,-63.762001037597656 -341.4020080566406,-69.59200286865234 -341.4020080566406,-69.59200286865234 C-341.4020080566406,-69.59200286865234 -339.760986328125,-76.87200164794922 -339.760986328125,-76.87200164794922 C-331.17999267578125,-114.9739990234375 -316.135009765625,-151.90199279785156 -294.62701416015625,-185.9149932861328 C-294.62701416015625,-185.9149932861328 -290.6369934082031,-192.2259979248047 -290.6369934082031,-192.2259979248047 C-290.6369934082031,-192.2259979248047 -348.2820129394531,-258.1059875488281 -348.2820129394531,-258.1059875488281 C-350.1600036621094,-260.25299072265625 -350.1860046386719,-263.2179870605469 -348.6700134277344,-265.2149963378906 C-325.0480041503906,-296.3330078125 -297.0979919433594,-324.49798583984375 -265.2430114746094,-348.69500732421875 C-263.24700927734375,-350.21099853515625 -260.2820129394531,-350.1860046386719 -258.135009765625,-348.3080139160156 C-258.135009765625,-348.3080139160156 -192.22500610351562,-290.6369934082031 -192.22500610351562,-290.6369934082031 C-192.22500610351562,-290.6369934082031 -185.9149932861328,-294.62701416015625 -185.9149932861328,-294.62701416015625 C-151.90199279785156,-316.135009765625 -114.9729995727539,-331.17999267578125 -76.87200164794922,-339.760986328125 C-76.87200164794922,-339.760986328125 -69.59200286865234,-341.4020080566406 -69.59200286865234,-341.4020080566406 C-69.59200286865234,-341.4020080566406 -63.762001037597656,-428.82000732421875 -63.762001037597656,-428.82000732421875 C-63.571998596191406,-431.6659851074219 -61.492000579833984,-433.7799987792969 -59.012001037597656,-434.1189880371094 C-19.371999740600586,-439.53399658203125 20.29800033569336,-439.3819885253906 59.007999420166016,-434.0820007324219 C61.49800109863281,-433.7409973144531 63.56800079345703,-431.62701416015625 63.757999420166016,-428.781005859375 C63.757999420166016,-428.781005859375 69.58799743652344,-341.4020080566406 69.58799743652344,-341.4020080566406 C69.58799743652344,-341.4020080566406 76.86799621582031,-339.760986328125 76.86799621582031,-339.760986328125 C114.96800231933594,-331.17999267578125 151.8979949951172,-316.135009765625 185.9080047607422,-294.62701416015625 C185.9080047607422,-294.62701416015625 192.21800231933594,-290.6369934082031 192.21800231933594,-290.6369934082031 C192.21800231933594,-290.6369934082031 258.1080017089844,-348.2829895019531 258.1080017089844,-348.2829895019531 C260.24798583984375,-350.1610107421875 263.2179870605469,-350.1860046386719 265.2080078125,-348.6700134277344 C296.3280029296875,-325.0480041503906 324.49798583984375,-297.0979919433594 348.68798828125,-265.2430114746094 C350.2080078125,-263.24700927734375 350.18798828125,-260.2820129394531 348.3080139160156,-258.135986328125 C348.3080139160156,-258.135986328125 290.63800048828125,-192.22500610351562 290.63800048828125,-192.22500610351562 C290.63800048828125,-192.22500610351562 294.62799072265625,-185.9149932861328 294.62799072265625,-185.9149932861328 C316.12799072265625,-151.90199279785156 331.1780090332031,-114.9739990234375 339.75799560546875,-76.87200164794922 C339.75799560546875,-76.87200164794922 341.39801025390625,-69.59200286865234 341.39801025390625,-69.59200286865234 C341.39801025390625,-69.59200286865234 428.8179931640625,-63.762001037597656 428.8179931640625,-63.762001037597656 C431.6579895019531,-63.571998596191406 433.77801513671875,-61.492000579833984 434.1180114746094,-59.012001037597656 C439.52801513671875,-19.371999740600586 439.37701416015625,20.308000564575195 434.0769958496094,59.007999420166016 C433.73699951171875,61.49800109863281 431.62799072265625,63.56800079345703 428.77801513671875,63.757999420166016 C428.77801513671875,63.757999420166016 341.39801025390625,69.58799743652344 341.39801025390625,69.58799743652344z"/>
    </g>
  </g>
</svg>