<svg xmlns="http://www.w3.org/2000/svg" viewBox="0 0 1618 1618" class="fox-alarm-cog-svg" aria-hidden="true">
  <g class="fox-alarm-cog-gear fox-alarm-cog-gear--gray">
    <g transform="matrix(-0.99955,-0.03,0.03,-0.99955,512,512)">
      <path fill="#f5f5f5" d="M193.424,0.676 C193.424,-105.775 107.128,-192.071 0.677,-192.071 C-105.775,-192.071 -192.07,-105.775 -192.07,0.676 C-192.07,107.128 -105.775,193.423 0.677,193.423 C107.128,193.423 193.424,107.128 193.424,0.676z M387.089,225.679 C383.343,232.091 375.57,234.849 368.535,232.47 C368.535,232.47 292.651,206.805 292.651,206.805 C269.497,239.636 240.656,268.816 206.816,292.682 C206.816,292.682 232.47,368.535 232.47,368.535 C234.849,375.569 232.091,383.343 225.68,387.089 C191.176,407.248 153.734,422.927 114.153,433.326 C106.97,435.213 99.522,431.666 96.23,425.01 C96.23,425.01 60.716,353.198 60.716,353.198 C19.913,360.251 -21.115,360.011 -60.702,353.169 C-60.702,353.169 -96.23,425.01 -96.23,425.01 C-99.522,431.666 -106.971,435.213 -114.153,433.326 C-153.735,422.927 -191.176,407.248 -225.68,387.089 C-232.091,383.342 -234.85,375.569 -232.471,368.535 C-232.471,368.535 -206.806,292.65 -206.806,292.65 C-239.637,269.497 -268.817,240.655 -292.682,206.816 C-292.682,206.816 -368.535,232.47 -368.535,232.47 C-375.569,234.849 -383.343,232.091 -387.089,225.679 C-407.249,191.176 -422.927,153.734 -433.326,114.153 C-435.213,106.97 -431.667,99.521 -425.01,96.229 C-425.01,96.229 -353.199,60.716 -353.199,60.716 C-360.251,19.913 -360.012,-21.115 -353.169,-60.702 C-353.169,-60.702 -425.01,-96.23 -425.01,-96.23 C-431.667,-99.522 -435.213,-106.971 -433.326,-114.153 C-422.927,-153.735 -407.249,-191.177 -387.089,-225.68 C-383.343,-232.092 -375.569,-234.85 -368.535,-232.471 C-368.535,-232.471 -292.651,-206.806 -292.651,-206.806 C-269.497,-239.637 -240.656,-268.817 -206.816,-292.682 C-206.816,-292.682 -232.471,-368.536 -232.471,-368.536 C-234.849,-375.57 -232.091,-383.343 -225.68,-387.089 C-191.176,-407.249 -153.734,-422.927 -114.153,-433.326 C-106.97,-435.213 -99.522,-431.667 -96.23,-425.01 C-96.23,-425.01 -60.716,-353.199 -60.716,-353.199 C-19.913,-360.252 21.115,-360.012 60.701,-353.17 C60.701,-353.17 96.229,-425.01 96.229,-425.01 C99.521,-431.667 106.97,-435.213 114.153,-433.326 C153.734,-422.927 191.176,-407.249 225.679,-387.09 C232.091,-383.343 234.849,-375.57 232.47,-368.536 C232.47,-368.536 206.805,-292.652 206.805,-292.652 C239.636,-269.498 268.817,-240.656 292.682,-206.817 C292.682,-206.817 368.535,-232.471 368.535,-232.471 C375.57,-234.85 383.343,-232.092 387.089,-225.68 C407.249,-191.176 422.927,-153.735 433.326,-114.153 C435.213,-106.971 431.667,-99.522 425.01,-96.23 C425.01,-96.23 353.199,-60.717 353.199,-60.717 C360.252,-19.913 360.012,21.114 353.169,60.701 C353.169,60.701 425.01,96.229 425.01,96.229 C431.667,99.521 435.213,106.97 433.326,114.152 C422.927,153.734 407.249,191.176 387.089,225.679z"/>
      <path fill="#d8d8d8" d="M0.677,193.423 C-105.775,193.423 -192.07,107.128 -192.07,0.676 C-192.07,-105.775 -105.775,-192.071 0.677,-192.071 C107.128,-192.071 193.424,-105.775 193.424,0.676 C193.424,107.128 107.128,193.423 0.677,193.423z M203.424,0.676 C203.424,-111.298 112.651,-202.071 0.677,-202.071 C-111.297,-202.071 -202.07,-111.298 -202.07,0.676 C-202.07,112.65 -111.297,203.423 0.677,203.423 C112.651,203.423 203.424,112.65 203.424,0.676z"/>
    </g>
  </g>
  <g class="fox-alarm-cog-gear fox-alarm-cog-gear--green">
    <g transform="matrix(-0.99955,0.03,-0.03,-0.99955,1106,1106)">
      <path fill="#f5ffed" d="M178.958,-73.392 C138.218,-171.745 25.468,-218.448 -72.882,-177.71 C-171.227,-136.973 -217.929,-24.222 -177.192,74.128 C-136.455,172.478 -23.702,219.178 74.648,178.438 C172.988,137.698 219.698,24.948 178.958,-73.392z M443.988,60.368 C442.978,67.728 436.848,73.248 429.448,73.738 C429.448,73.738 349.518,79.068 349.518,79.068 C340.688,118.258 325.207,156.258 303.077,191.258 C303.077,191.258 355.808,251.518 355.808,251.518 C360.698,257.108 361.118,265.348 356.628,271.258 C332.468,303.088 303.878,331.898 271.288,356.658 C265.378,361.148 257.138,360.718 251.548,355.828 C251.548,355.828 191.258,303.077 191.258,303.077 C156.258,325.207 118.258,340.688 79.068,349.518 C79.068,349.518 73.738,429.478 73.738,429.478 C73.248,436.888 67.718,443.018 60.358,444.028 C19.818,449.568 -20.782,449.408 -60.372,443.988 C-67.722,442.978 -73.252,436.848 -73.742,429.448 C-73.742,429.448 -79.072,349.518 -79.072,349.518 C-118.265,340.688 -156.261,325.207 -191.259,303.077 C-191.259,303.077 -251.521,355.808 -251.521,355.808 C-257.109,360.698 -265.347,361.118 -271.261,356.628 C-303.09,332.468 -331.904,303.878 -356.658,271.288 C-361.15,265.378 -360.724,257.138 -355.834,251.548 C-355.834,251.548 -303.079,191.258 -303.079,191.258 C-325.21,156.258 -340.689,118.258 -349.517,79.068 C-349.517,79.068 -429.485,73.738 -429.485,73.738 C-436.895,73.248 -443.022,67.718 -444.027,60.358 C-449.567,19.818 -449.41,-20.782 -443.989,-60.372 C-442.982,-67.732 -436.855,-73.252 -429.446,-73.742 C-429.446,-73.742 -349.517,-79.072 -349.517,-79.072 C-340.689,-118.265 -325.21,-156.261 -303.079,-191.259 C-303.079,-191.259 -355.808,-251.521 -355.808,-251.521 C-360.698,-257.11 -361.125,-265.347 -356.635,-271.261 C-332.472,-303.091 -303.881,-331.904 -271.292,-356.658 C-265.378,-361.15 -257.139,-360.724 -251.55,-355.834 C-251.55,-355.834 -191.259,-303.079 -191.259,-303.079 C-156.261,-325.21 -118.265,-340.689 -79.072,-349.517 C-79.072,-349.517 -73.742,-429.485 -73.742,-429.485 C-73.252,-436.895 -67.722,-443.022 -60.362,-444.027 C-19.812,-449.567 20.778,-449.41 60.368,-443.989 C67.728,-442.982 73.248,-436.855 73.738,-429.446 C73.738,-429.446 79.068,-349.517 79.068,-349.517 C118.258,-340.689 156.258,-325.21 191.258,-303.079 C191.258,-303.079 251.518,-355.808 251.518,-355.808 C257.108,-360.698 265.348,-361.125 271.258,-356.635 C303.088,-332.472 331.898,-303.881 356.658,-271.292 C361.148,-265.378 360.718,-257.139 355.828,-251.55 C355.828,-251.55 303.077,-191.259 303.077,-191.259 C325.207,-156.261 340.688,-118.265 349.518,-79.072 C349.518,-79.072 429.478,-73.742 429.478,-73.742 C436.888,-73.252 443.018,-67.722 444.028,-60.362 C449.568,-19.812 449.408,20.778 443.988,60.368z"/>
      <path fill="#b8eb8f" d="M74.648,178.438 C172.988,137.698 219.698,24.948 178.958,-73.392 C138.218,-171.745 25.468,-218.448 -72.882,-177.71 C-171.227,-136.973 -217.929,-24.222 -177.192,74.128 C-136.455,172.478 -23.702,219.178 74.648,178.438z M188.198,-77.222 C231.048,26.228 181.918,144.828 78.468,187.678 C-24.982,230.528 -143.581,181.408 -186.431,77.948 C-229.282,-25.502 -180.156,-144.099 -76.702,-186.949 C26.748,-229.8 145.348,-180.674 188.198,-77.222z"/>
    </g>
  </g>
</svg>
