<svg xmlns="http://www.w3.org/2000/svg" viewBox="0 0 1618 1618" class="fox-alarm-cog-svg" aria-hidden="true">
  <g class="fox-alarm-cog-gear fox-alarm-cog-gear--gray">
    <g transform="matrix(0.8079075813293457,0.5893091559410095,-0.5893091559410095,0.8079075813293457,512,512)">
      <path fill="#f5f5f5" d="M193.4239959716797,0.6759999990463257 C193.4239959716797,-105.7750015258789 107.12799835205078,-192.0709991455078 0.6769999861717224,-192.0709991455078 C-105.7750015258789,-192.0709991455078 -192.07000732421875,-105.7750015258789 -192.07000732421875,0.6759999990463257 C-192.07000732421875,107.12799835205078 -105.7750015258789,193.42300415039062 0.6769999861717224,193.42300415039062 C107.12799835205078,193.42300415039062 193.4239959716797,107.12799835205078 193.4239959716797,0.6759999990463257z M387.0889892578125,225.6790008544922 C383.3429870605469,232.09100341796875 375.57000732421875,234.8489990234375 368.5350036621094,232.47000122070312 C368.5350036621094,232.47000122070312 292.6510009765625,206.80499267578125 292.6510009765625,206.80499267578125 C269.49700927734375,239.63600158691406 240.656005859375,268.8160095214844 206.8159942626953,292.6820068359375 C206.8159942626953,292.6820068359375 232.47000122070312,368.5350036621094 232.47000122070312,368.5350036621094 C234.8489990234375,375.5690002441406 232.09100341796875,383.3429870605469 225.67999267578125,387.0889892578125 C191.17599487304688,407.24798583984375 153.73399353027344,422.927001953125 114.15299987792969,433.32598876953125 C106.97000122070312,435.2130126953125 99.52200317382812,431.6659851074219 96.2300033569336,425.010009765625 C96.2300033569336,425.010009765625 60.715999603271484,353.197998046875 60.715999603271484,353.197998046875 C19.913000106811523,360.2510070800781 -21.114999771118164,360.010986328125 -60.70199966430664,353.16900634765625 C-60.70199966430664,353.16900634765625 -96.2300033569336,425.010009765625 -96.2300033569336,425.010009765625 C-99.52200317382812,431.6659851074219 -106.97100067138672,435.2130126953125 -114.15299987792969,433.32598876953125 C-153.73500061035156,422.927001953125 -191.17599487304688,407.24798583984375 -225.67999267578125,387.0889892578125 C-232.09100341796875,383.3420104980469 -234.85000610351562,375.5690002441406 -232.4709930419922,368.5350036621094 C-232.4709930419922,368.5350036621094 -206.80599975585938,292.6499938964844 -206.80599975585938,292.6499938964844 C-239.63699340820312,269.49700927734375 -268.8169860839844,240.65499877929688 -292.6820068359375,206.8159942626953 C-292.6820068359375,206.8159942626953 -368.5350036621094,232.47000122070312 -368.5350036621094,232.47000122070312 C-375.5690002441406,234.8489990234375 -383.3429870605469,232.09100341796875 -387.0889892578125,225.6790008544922 C-407.2489929199219,191.17599487304688 -422.927001953125,153.73399353027344 -433.32598876953125,114.15299987792969 C-435.2130126953125,106.97000122070312 -431.6669921875,99.52100372314453 -425.010009765625,96.22899627685547 C-425.010009765625,96.22899627685547 -353.1990051269531,60.715999603271484 -353.1990051269531,60.715999603271484 C-360.2510070800781,19.913000106811523 -360.0119934082031,-21.114999771118164 -353.16900634765625,-60.70199966430664 C-353.16900634765625,-60.70199966430664 -425.010009765625,-96.2300033569336 -425.010009765625,-96.2300033569336 C-431.6669921875,-99.52200317382812 -435.2130126953125,-106.97100067138672 -433.32598876953125,-114.15299987792969 C-422.927001953125,-153.73500061035156 -407.2489929199219,-191.177001953125 -387.0889892578125,-225.67999267578125 C-383.3429870605469,-232.0919952392578 -375.5690002441406,-234.85000610351562 -368.5350036621094,-232.4709930419922 C-368.5350036621094,-232.4709930419922 -292.6510009765625,-206.80599975585938 -292.6510009765625,-206.80599975585938 C-269.49700927734375,-239.63699340820312 -240.656005859375,-268.8169860839844 -206.8159942626953,-292.6820068359375 C-206.8159942626953,-292.6820068359375 -232.47000122070312,-368.5360107421875 -232.47000122070312,-368.5360107421875 C-234.8489990234375,-375.57000732421875 -232.09100341796875,-383.3429870605469 -225.67999267578125,-387.0889892578125 C-191.17599487304688,-407.2489929199219 -153.73399353027344,-422.927001953125 -114.15299987792969,-433.32598876953125 C-106.97000122070312,-435.2130126953125 -99.52200317382812,-431.6669921875 -96.2300033569336,-425.010009765625 C-96.2300033569336,-425.010009765625 -60.715999603271484,-353.1990051269531 -60.715999603271484,-353.1990051269531 C-19.913000106811523,-360.25201416015625 21.114999771118164,-360.0119934082031 60.70100021362305,-353.1700134277344 C60.70100021362305,-353.1700134277344 96.22899627685547,-425.010009765625 96.22899627685547,-425.010009765625 C99.52100372314453,-431.6669921875 106.97000122070312,-435.2130126953125 114.15299987792969,-433.32598876953125 C153.73399353027344,-422.927001953125 191.17599487304688,-407.2489929199219 225.6790008544922,-387.0899963378906 C232.09100341796875,-383.3429870605469 234.8489990234375,-375.57000732421875 232.47000122070312,-368.5360107421875 C232.47000122070312,-368.5360107421875 206.80499267578125,-292.6520080566406 206.80499267578125,-292.6520080566406 C239.63600158691406,-269.49798583984375 268.8169860839844,-240.656005859375 292.6820068359375,-206.81700134277344 C292.6820068359375,-206.81700134277344 368.5350036621094,-232.4709930419922 368.5350036621094,-232.4709930419922 C375.57000732421875,-234.85000610351562 383.3429870605469,-232.0919952392578 387.0889892578125,-225.67999267578125 C407.2489929199219,-191.17599487304688 422.927001953125,-153.73500061035156 433.32598876953125,-114.15299987792969 C435.2130126953125,-106.97100067138672 431.6669921875,-99.52200317382812 425.010009765625,-96.2300033569336 C425.010009765625,-96.2300033569336 353.1990051269531,-60.71699905395508 353.1990051269531,-60.71699905395508 C360.25201416015625,-19.913000106811523 360.0119934082031,21.11400032043457 353.16900634765625,60.70100021362305 C353.16900634765625,60.70100021362305 425.010009765625,96.22899627685547 425.010009765625,96.22899627685547 C431.6669921875,99.52100372314453 435.2130126953125,106.97000122070312 433.32598876953125,114.1520004272461 C422.927001953125,153.73399353027344 407.2489929199219,191.17599487304688 387.0889892578125,225.6790008544922z"/>
      <path fill="#d8d8d8" d="M0.6769999861717224,193.42300415039062 C-105.7750015258789,193.42300415039062 -192.07000732421875,107.12799835205078 -192.07000732421875,0.6759999990463257 C-192.07000732421875,-105.7750015258789 -105.7750015258789,-192.0709991455078 0.6769999861717224,-192.0709991455078 C107.12799835205078,-192.0709991455078 193.4239959716797,-105.7750015258789 193.4239959716797,0.6759999990463257 C193.4239959716797,107.12799835205078 107.12799835205078,193.42300415039062 0.6769999861717224,193.42300415039062z M203.4239959716797,0.6759999990463257 C203.4239959716797,-111.2979965209961 112.6510009765625,-202.0709991455078 0.6769999861717224,-202.0709991455078 C-111.2969970703125,-202.0709991455078 -202.07000732421875,-111.2979965209961 -202.07000732421875,0.6759999990463257 C-202.07000732421875,112.6500015258789 -111.2969970703125,203.42300415039062 0.6769999861717224,203.42300415039062 C112.6510009765625,203.42300415039062 203.4239959716797,112.6500015258789 203.4239959716797,0.6759999990463257z M206.8159942626953,292.6820068359375 C240.656005859375,268.8160095214844 269.49700927734375,239.63600158691406 292.6510009765625,206.80499267578125 C292.6510009765625,206.80499267578125 368.5350036621094,232.47000122070312 368.5350036621094,232.47000122070312 C375.57000732421875,234.8489990234375 383.3429870605469,232.09100341796875 387.0889892578125,225.6790008544922 C407.2489929199219,191.17599487304688 422.927001953125,153.73399353027344 433.32598876953125,114.1520004272461 C435.2130126953125,106.97000122070312 431.6669921875,99.52100372314453 425.010009765625,96.22899627685547 C425.010009765625,96.22899627685547 353.16900634765625,60.70100021362305 353.16900634765625,60.70100021362305 C360.0119934082031,21.11400032043457 360.25201416015625,-19.913000106811523 353.1990051269531,-60.71699905395508 C353.1990051269531,-60.71699905395508 425.010009765625,-96.2300033569336 425.010009765625,-96.2300033569336 C431.6669921875,-99.52200317382812 435.2130126953125,-106.97100067138672 433.32598876953125,-114.15299987792969 C422.927001953125,-153.73500061035156 407.2489929199219,-191.17599487304688 387.0889892578125,-225.67999267578125 C383.3429870605469,-232.0919952392578 375.57000732421875,-234.85000610351562 368.5350036621094,-232.4709930419922 C368.5350036621094,-232.4709930419922 292.6820068359375,-206.81700134277344 292.6820068359375,-206.81700134277344 C268.8169860839844,-240.656005859375 239.63600158691406,-269.49798583984375 206.80499267578125,-292.6520080566406 C206.80499267578125,-292.6520080566406 232.47000122070312,-368.5360107421875 232.47000122070312,-368.5360107421875 C234.8489990234375,-375.57000732421875 232.09100341796875,-383.3429870605469 225.6790008544922,-387.0899963378906 C191.17599487304688,-407.2489929199219 153.73399353027344,-422.927001953125 114.15299987792969,-433.32598876953125 C106.97000122070312,-435.2130126953125 99.52100372314453,-431.6669921875 96.22899627685547,-425.010009765625 C96.22899627685547,-425.010009765625 60.70100021362305,-353.1700134277344 60.70100021362305,-353.1700134277344 C21.114999771118164,-360.0119934082031 -19.913000106811523,-360.25201416015625 -60.715999603271484,-353.1990051269531 C-60.715999603271484,-353.1990051269531 -96.2300033569336,-425.010009765625 -96.2300033569336,-425.010009765625 C-99.52200317382812,-431.6669921875 -106.97000122070312,-435.2130126953125 -114.15299987792969,-433.32598876953125 C-153.73399353027344,-422.927001953125 -191.17599487304688,-407.2489929199219 -225.67999267578125,-387.0889892578125 C-232.09100341796875,-383.3429870605469 -234.8489990234375,-375.57000732421875 -232.47000122070312,-368.5360107421875 C-232.47000122070312,-368.5360107421875 -206.8159942626953,-292.6820068359375 -206.8159942626953,-292.6820068359375 C-240.656005859375,-268.8169860839844 -269.49700927734375,-239.63699340820312 -292.6510009765625,-206.80599975585938 C-292.6510009765625,-206.80599975585938 -368.5350036621094,-232.4709930419922 -368.5350036621094,-232.4709930419922 C-375.5690002441406,-234.85000610351562 -383.3429870605469,-232.0919952392578 -387.0889892578125,-225.67999267578125 C-407.2489929199219,-191.177001953125 -422.927001953125,-153.73500061035156 -433.32598876953125,-114.15299987792969 C-435.2130126953125,-106.97100067138672 -431.6669921875,-99.52200317382812 -425.010009765625,-96.2300033569336 C-425.010009765625,-96.2300033569336 -353.16900634765625,-60.70199966430664 -353.16900634765625,-60.70199966430664 C-360.0119934082031,-21.114999771118164 -360.2510070800781,19.913000106811523 -353.1990051269531,60.715999603271484 C-353.1990051269531,60.715999603271484 -425.010009765625,96.22899627685547 -425.010009765625,96.22899627685547 C-431.6669921875,99.52100372314453 -435.2130126953125,106.97000122070312 -433.32598876953125,114.15299987792969 C-422.927001953125,153.73399353027344 -407.2489929199219,191.17599487304688 -387.0889892578125,225.6790008544922 C-383.3429870605469,232.09100341796875 -375.5690002441406,234.8489990234375 -368.5350036621094,232.47000122070312 C-368.5350036621094,232.47000122070312 -292.6820068359375,206.8159942626953 -292.6820068359375,206.8159942626953 C-268.8169860839844,240.65499877929688 -239.63699340820312,269.49700927734375 -206.80599975585938,292.6499938964844 C-206.80599975585938,292.6499938964844 -232.4709930419922,368.5350036621094 -232.4709930419922,368.5350036621094 C-234.85000610351562,375.5690002441406 -232.09100341796875,383.3420104980469 -225.67999267578125,387.0889892578125 C-191.17599487304688,407.24798583984375 -153.73500061035156,422.927001953125 -114.15299987792969,433.32598876953125 C-106.97100067138672,435.2130126953125 -99.52200317382812,431.6659851074219 -96.2300033569336,425.010009765625 C-96.2300033569336,425.010009765625 -60.70199966430664,353.16900634765625 -60.70199966430664,353.16900634765625 C-21.114999771118164,360.010986328125 19.913000106811523,360.2510070800781 60.715999603271484,353.197998046875 C60.715999603271484,353.197998046875 96.2300033569336,425.010009765625 96.2300033569336,425.010009765625 C99.52200317382812,431.6659851074219 106.97000122070312,435.2130126953125 114.15299987792969,433.32598876953125 C153.73399353027344,422.927001953125 191.17599487304688,407.24798583984375 225.67999267578125,387.0889892578125 C232.09100341796875,383.3429870605469 234.8489990234375,375.5690002441406 232.47000122070312,368.5350036621094 C232.47000122070312,368.5350036621094 206.8159942626953,292.6820068359375 206.8159942626953,292.6820068359375z M288.7820129394531,194.94000244140625 C288.7820129394531,194.94000244140625 284.47900390625,201.04200744628906 284.47900390625,201.04200744628906 C261.97100830078125,232.95599365234375 233.93899536132812,261.3160095214844 201.05299377441406,284.510009765625 C201.05299377441406,284.510009765625 194.9510040283203,288.81298828125 194.9510040283203,288.81298828125 C194.9510040283203,288.81298828125 222.9969940185547,371.739013671875 222.9969940185547,371.739013671875 C223.91099548339844,374.44000244140625 222.8000030517578,377.19000244140625 220.63499450683594,378.4549865722656 C186.9029998779297,398.16400146484375 150.302001953125,413.489013671875 111.61199951171875,423.65399169921875 C109.18800354003906,424.2909851074219 106.45800018310547,423.13299560546875 105.19400024414062,420.5769958496094 C105.19400024414062,420.5769958496094 66.37000274658203,342.072998046875 66.37000274658203,342.072998046875 C66.37000274658203,342.072998046875 59.01300048828125,343.343994140625 59.01300048828125,343.343994140625 C19.358999252319336,350.1990051269531 -20.517000198364258,349.9670104980469 -58.999000549316406,343.31500244140625 C-58.999000549316406,343.31500244140625 -66.35600280761719,342.0429992675781 -66.35600280761719,342.0429992675781 C-66.35600280761719,342.0429992675781 -105.19400024414062,420.5769958496094 -105.19400024414062,420.5769958496094 C-106.45800018310547,423.13299560546875 -109.18800354003906,424.2909851074219 -111.61199951171875,423.65399169921875 C-150.302001953125,413.489013671875 -186.9029998779297,398.1629943847656 -220.63499450683594,378.4540100097656 C-222.8000030517578,377.1889953613281 -223.91099548339844,374.44000244140625 -222.9980010986328,371.739013671875 C-222.9980010986328,371.739013671875 -194.9409942626953,288.781005859375 -194.9409942626953,288.781005859375 C-194.9409942626953,288.781005859375 -201.04299926757812,284.4779968261719 -201.04299926757812,284.4779968261719 C-232.95700073242188,261.97100830078125 -261.3169860839844,233.93899536132812 -284.510009765625,201.052001953125 C-284.510009765625,201.052001953125 -288.81298828125,194.9510040283203 -288.81298828125,194.9510040283203 C-288.81298828125,194.9510040283203 -371.739013671875,222.9969940185547 -371.739013671875,222.9969940185547 C-374.4410095214844,223.91099548339844 -377.19000244140625,222.8000030517578 -378.4549865722656,220.63499450683594 C-398.16400146484375,186.90199279785156 -413.489013671875,150.30099487304688 -423.65399169921875,111.61199951171875 C-424.2909851074219,109.18800354003906 -423.13299560546875,106.45700073242188 -420.5769958496094,105.19300079345703 C-420.5769958496094,105.19300079345703 -342.072998046875,66.37000274658203 -342.072998046875,66.37000274658203 C-342.072998046875,66.37000274658203 -343.3450012207031,59.01300048828125 -343.3450012207031,59.01300048828125 C-350.1990051269531,19.357999801635742 -349.9670104980469,-20.517000198364258 -343.31500244140625,-58.999000549316406 C-343.31500244140625,-58.999000549316406 -342.0429992675781,-66.35600280761719 -342.0429992675781,-66.35600280761719 C-342.0429992675781,-66.35600280761719 -420.5769958496094,-105.19400024414062 -420.5769958496094,-105.19400024414062 C-423.13299560546875,-106.45800018310547 -424.2909851074219,-109.18800354003906 -423.65399169921875,-111.61199951171875 C-413.489013671875,-150.302001953125 -398.16400146484375,-186.9029998779297 -378.4549865722656,-220.63499450683594 C-377.19000244140625,-222.80099487304688 -374.44000244140625,-223.91200256347656 -371.739013671875,-222.9980010986328 C-371.739013671875,-222.9980010986328 -288.7820129394531,-194.9409942626953 -288.7820129394531,-194.9409942626953 C-288.7820129394531,-194.9409942626953 -284.47900390625,-201.04299926757812 -284.47900390625,-201.04299926757812 C-261.97100830078125,-232.95700073242188 -233.93899536132812,-261.3169860839844 -201.05299377441406,-284.510009765625 C-201.05299377441406,-284.510009765625 -194.9510040283203,-288.81298828125 -194.9510040283203,-288.81298828125 C-194.9510040283203,-288.81298828125 -222.9969940185547,-371.739013671875 -222.9969940185547,-371.739013671875 C-223.91099548339844,-374.4410095214844 -222.8000030517578,-377.19000244140625 -220.63499450683594,-378.4549865722656 C-186.90199279785156,-398.16400146484375 -150.302001953125,-413.489013671875 -111.61199951171875,-423.65399169921875 C-109.18800354003906,-424.2909851074219 -106.45800018310547,-423.1340026855469 -105.19400024414062,-420.5769958496094 C-105.19400024414062,-420.5769958496094 -66.37000274658203,-342.072998046875 -66.37000274658203,-342.072998046875 C-66.37000274658203,-342.072998046875 -59.01300048828125,-343.3450012207031 -59.01300048828125,-343.3450012207031 C-19.358999252319336,-350.1990051269531 20.516000747680664,-349.9670104980469 58.99800109863281,-343.3160095214844 C58.99800109863281,-343.3160095214844 66.3550033569336,-342.04400634765625 66.3550033569336,-342.04400634765625 C66.3550033569336,-342.04400634765625 105.19300079345703,-420.5769958496094 105.19300079345703,-420.5769958496094 C106.45700073242188,-423.13299560546875 109.18800354003906,-424.2919921875 111.61199951171875,-423.6549987792969 C150.302001953125,-413.489990234375 186.90199279785156,-398.16400146484375 220.63499450683594,-378.4549865722656 C222.8000030517578,-377.19000244140625 223.91099548339844,-374.4410095214844 222.9969940185547,-371.739990234375 C222.9969940185547,-371.739990234375 194.94000244140625,-288.7829895019531 194.94000244140625,-288.7829895019531 C194.94000244140625,-288.7829895019531 201.04200744628906,-284.47900390625 201.04200744628906,-284.47900390625 C232.95700073242188,-261.97198486328125 261.3169860839844,-233.94000244140625 284.510009765625,-201.05299377441406 C284.510009765625,-201.05299377441406 288.81298828125,-194.95199584960938 288.81298828125,-194.95199584960938 C288.81298828125,-194.95199584960938 371.739013671875,-222.9980010986328 371.739013671875,-222.9980010986328 C374.4410095214844,-223.91099548339844 377.19000244140625,-222.8000030517578 378.4549865722656,-220.63499450683594 C398.16400146484375,-186.9029998779297 413.489990234375,-150.302001953125 423.65399169921875,-111.61199951171875 C424.2909851074219,-109.18800354003906 423.1340026855469,-106.45800018310547 420.5769958496094,-105.19400024414062 C420.5769958496094,-105.19400024414062 342.072998046875,-66.37100219726562 342.072998046875,-66.37100219726562 C342.072998046875,-66.37100219726562 343.3450012207031,-59.01300048828125 343.3450012207031,-59.01300048828125 C350.1990051269531,-19.358999252319336 349.9670104980469,20.516000747680664 343.31500244140625,58.99800109863281 C343.31500244140625,58.99800109863281 342.04400634765625,66.3550033569336 342.04400634765625,66.3550033569336 C342.04400634765625,66.3550033569336 420.5769958496094,105.19300079345703 420.5769958496094,105.19300079345703 C423.1340026855469,106.45700073242188 424.2909851074219,109.18699645996094 423.65399169921875,111.61100006103516 C413.489990234375,150.30099487304688 398.16400146484375,186.90199279785156 378.4549865722656,220.63400268554688 C377.19000244140625,222.7989959716797 374.4410095214844,223.91099548339844 371.739013671875,222.9969940185547 C371.739013671875,222.9969940185547 288.7820129394531,194.94000244140625 288.7820129394531,194.94000244140625z"/>
    </g>
  </g>
  <g class="fox-alarm-cog-gear fox-alarm-cog-gear--green">
    <g transform="matrix(0.8079075813293457,-0.5893091559410095,0.5893091559410095,0.8079075813293457,1106.001953125,1106.001953125)">
      <path fill="#f5ffed" d="M178.95799255371094,-73.39199829101562 C138.21800231933594,-171.7449951171875 25.468000411987305,-218.447998046875 -72.88200378417969,-177.7100067138672 C-171.2270050048828,-136.97300720214844 -217.9290008544922,-24.222000122070312 -177.19200134277344,74.12799835205078 C-136.4550018310547,172.47799682617188 -23.70199966430664,219.17799377441406 74.64800262451172,178.43800354003906 C172.98800659179688,137.697998046875 219.697998046875,24.947999954223633 178.95799255371094,-73.39199829101562z M443.9880065917969,60.36800003051758 C442.9779968261719,67.72799682617188 436.8479919433594,73.24800109863281 429.447998046875,73.73799896240234 C429.447998046875,73.73799896240234 349.51800537109375,79.06800079345703 349.51800537109375,79.06800079345703 C340.68798828125,118.25800323486328 325.2070007324219,156.25799560546875 303.0769958496094,191.25799560546875 C303.0769958496094,191.25799560546875 355.8080139160156,251.51800537109375 355.8080139160156,251.51800537109375 C360.697998046875,257.1080017089844 361.1180114746094,265.3479919433594 356.62799072265625,271.25799560546875 C332.4679870605469,303.0880126953125 303.87799072265625,331.89801025390625 271.2879943847656,356.6579895019531 C265.37799072265625,361.14801025390625 257.13800048828125,360.7179870605469 251.54800415039062,355.8280029296875 C251.54800415039062,355.8280029296875 191.25799560546875,303.0769958496094 191.25799560546875,303.0769958496094 C156.25799560546875,325.2070007324219 118.25800323486328,340.68798828125 79.06800079345703,349.51800537109375 C79.06800079345703,349.51800537109375 73.73799896240234,429.4779968261719 73.73799896240234,429.4779968261719 C73.24800109863281,436.88800048828125 67.71800231933594,443.01800537109375 60.358001708984375,444.02801513671875 C19.81800079345703,449.5679931640625 -20.781999588012695,449.4079895019531 -60.37200164794922,443.9880065917969 C-67.72200012207031,442.9779968261719 -73.25199890136719,436.8479919433594 -73.74199676513672,429.447998046875 C-73.74199676513672,429.447998046875 -79.0719985961914,349.51800537109375 -79.0719985961914,349.51800537109375 C-118.26499938964844,340.68798828125 -156.26100158691406,325.2070007324219 -191.25900268554688,303.0769958496094 C-191.25900268554688,303.0769958496094 -251.52099609375,355.8080139160156 -251.52099609375,355.8080139160156 C-257.1090087890625,360.697998046875 -265.34698486328125,361.1180114746094 -271.260986328125,356.62799072265625 C-303.0899963378906,332.4679870605469 -331.90399169921875,303.87799072265625 -356.6579895019531,271.2879943847656 C-361.1499938964844,265.37799072265625 -360.7239990234375,257.13800048828125 -355.8340148925781,251.54800415039062 C-355.8340148925781,251.54800415039062 -303.0790100097656,191.25799560546875 -303.0790100097656,191.25799560546875 C-325.2099914550781,156.25799560546875 -340.6889953613281,118.25800323486328 -349.5169982910156,79.06800079345703 C-349.5169982910156,79.06800079345703 -429.4849853515625,73.73799896240234 -429.4849853515625,73.73799896240234 C-436.8949890136719,73.24800109863281 -443.0220031738281,67.71800231933594 -444.0270080566406,60.358001708984375 C-449.5669860839844,19.81800079345703 -449.4100036621094,-20.781999588012695 -443.989013671875,-60.37200164794922 C-442.98199462890625,-67.73200225830078 -436.8550109863281,-73.25199890136719 -429.4460144042969,-73.74199676513672 C-429.4460144042969,-73.74199676513672 -349.5169982910156,-79.0719985961914 -349.5169982910156,-79.0719985961914 C-340.6889953613281,-118.26499938964844 -325.2099914550781,-156.26100158691406 -303.0790100097656,-191.25900268554688 C-303.0790100097656,-191.25900268554688 -355.8080139160156,-251.52099609375 -355.8080139160156,-251.52099609375 C-360.697998046875,-257.1099853515625 -361.125,-265.34698486328125 -356.635009765625,-271.260986328125 C-332.47198486328125,-303.09100341796875 -303.8810119628906,-331.90399169921875 -271.2919921875,-356.6579895019531 C-265.37799072265625,-361.1499938964844 -257.1390075683594,-360.7239990234375 -251.5500030517578,-355.8340148925781 C-251.5500030517578,-355.8340148925781 -191.25900268554688,-303.0790100097656 -191.25900268554688,-303.0790100097656 C-156.26100158691406,-325.2099914550781 -118.26499938964844,-340.6889953613281 -79.0719985961914,-349.5169982910156 C-79.0719985961914,-349.5169982910156 -73.74199676513672,-429.4849853515625 -73.74199676513672,-429.4849853515625 C-73.25199890136719,-436.8949890136719 -67.72200012207031,-443.0220031738281 -60.36199951171875,-444.0270080566406 C-19.812000274658203,-449.5669860839844 20.777999877929688,-449.4100036621094 60.36800003051758,-443.989013671875 C67.72799682617188,-442.98199462890625 73.24800109863281,-436.8559875488281 73.73799896240234,-429.4460144042969 C73.73799896240234,-429.4460144042969 79.06800079345703,-349.5169982910156 79.06800079345703,-349.5169982910156 C118.25800323486328,-340.69000244140625 156.25799560546875,-325.2099914550781 191.25799560546875,-303.0790100097656 C191.25799560546875,-303.0790100097656 251.51800537109375,-355.8080139160156 251.51800537109375,-355.8080139160156 C257.1080017089844,-360.697998046875 265.3479919433594,-361.125 271.25799560546875,-356.635009765625 C303.0880126953125,-332.4729919433594 331.89801025390625,-303.8810119628906 356.6579895019531,-271.2919921875 C361.14801025390625,-265.37799072265625 360.7179870605469,-257.1390075683594 355.8280029296875,-251.55099487304688 C355.8280029296875,-251.55099487304688 303.0769958496094,-191.25900268554688 303.0769958496094,-191.25900268554688 C325.2070007324219,-156.26100158691406 340.68798828125,-118.26499938964844 349.51800537109375,-79.0719985961914 C349.51800537109375,-79.0719985961914 429.4779968261719,-73.74199676513672 429.4779968261719,-73.74199676513672 C436.88800048828125,-73.25199890136719 443.01800537109375,-67.72200012207031 444.02801513671875,-60.36199951171875 C449.5679931640625,-19.812000274658203 449.4079895019531,20.777999877929688 443.9880065917969,60.36800003051758z"/>
      <path fill="#b8eb8f" d="M74.64800262451172,178.43800354003906 C172.98800659179688,137.697998046875 219.697998046875,24.947999954223633 178.95799255371094,-73.39199829101562 C138.21800231933594,-171.7449951171875 25.468000411987305,-218.447998046875 -72.88200378417969,-177.7100067138672 C-171.2270050048828,-136.97300720214844 -217.9290008544922,-24.222000122070312 -177.19200134277344,74.12799835205078 C-136.4550018310547,172.47799682617188 -23.70199966430664,219.17799377441406 74.64800262451172,178.43800354003906z M188.197998046875,-77.22200012207031 C231.04800415039062,26.22800064086914 181.91799926757812,144.8280029296875 78.46800231933594,187.67799377441406 C-24.98200035095215,230.5279998779297 -143.58099365234375,181.4080047607422 -186.43099975585938,77.947998046875 C-229.28199768066406,-25.50200080871582 -180.156005859375,-144.0989990234375 -76.7020034790039,-186.94900512695312 C26.74799919128418,-229.8000030517578 145.34800720214844,-180.6739959716797 188.197998046875,-77.22200012207031z M303.0769958496094,191.25799560546875 C325.2070007324219,156.25799560546875 340.68798828125,118.25800323486328 349.51800537109375,79.06800079345703 C349.51800537109375,79.06800079345703 429.447998046875,73.73799896240234 429.447998046875,73.73799896240234 C436.8479919433594,73.24800109863281 442.9779968261719,67.72799682617188 443.9880065917969,60.36800003051758 C449.4079895019531,20.777999877929688 449.5679931640625,-19.812000274658203 444.02801513671875,-60.36199951171875 C443.01800537109375,-67.72200012207031 436.88800048828125,-73.25199890136719 429.4779968261719,-73.74199676513672 C429.4779968261719,-73.74199676513672 349.51800537109375,-79.0719985961914 349.51800537109375,-79.0719985961914 C340.68798828125,-118.26499938964844 325.2070007324219,-156.26100158691406 303.0769958496094,-191.25900268554688 C303.0769958496094,-191.25900268554688 355.8280029296875,-251.55099487304688 355.8280029296875,-251.55099487304688 C360.7179870605469,-257.1390075683594 361.14801025390625,-265.37799072265625 356.6579895019531,-271.2919921875 C331.89801025390625,-303.8810119628906 303.0880126953125,-332.4729919433594 271.25799560546875,-356.635009765625 C265.3479919433594,-361.125 257.1080017089844,-360.697998046875 251.51800537109375,-355.8080139160156 C251.51800537109375,-355.8080139160156 191.25799560546875,-303.0790100097656 191.25799560546875,-303.0790100097656 C156.25799560546875,-325.2099914550781 118.25800323486328,-340.69000244140625 79.06800079345703,-349.5169982910156 C79.06800079345703,-349.5169982910156 73.73799896240234,-429.4460144042969 73.73799896240234,-429.4460144042969 C73.24800109863281,-436.8559875488281 67.72799682617188,-442.98199462890625 60.36800003051758,-443.989013671875 C20.777999877929688,-449.4100036621094 -19.812000274658203,-449.5669860839844 -60.36199951171875,-444.0270080566406 C-67.72200012207031,-443.0220031738281 -73.25199890136719,-436.8949890136719 -73.74199676513672,-429.4849853515625 C-73.74199676513672,-429.4849853515625 -79.0719985961914,-349.5169982910156 -79.0719985961914,-349.5169982910156 C-118.26499938964844,-340.6889953613281 -156.26100158691406,-325.2099914550781 -191.25900268554688,-303.0790100097656 C-191.25900268554688,-303.0790100097656 -251.5500030517578,-355.8340148925781 -251.5500030517578,-355.8340148925781 C-257.1390075683594,-360.7239990234375 -265.37799072265625,-361.1499938964844 -271.2919921875,-356.6579895019531 C-303.8810119628906,-331.90399169921875 -332.47198486328125,-303.09100341796875 -356.635009765625,-271.260986328125 C-361.125,-265.34698486328125 -360.697998046875,-257.1099853515625 -355.8080139160156,-251.52099609375 C-355.8080139160156,-251.52099609375 -303.0790100097656,-191.25900268554688 -303.0790100097656,-191.25900268554688 C-325.2099914550781,-156.26100158691406 -340.6889953613281,-118.26499938964844 -349.5169982910156,-79.0719985961914 C-349.5169982910156,-79.0719985961914 -429.4460144042969,-73.74199676513672 -429.4460144042969,-73.74199676513672 C-436.8550109863281,-73.25199890136719 -442.98199462890625,-67.73200225830078 -443.989013671875,-60.37200164794922 C-449.4100036621094,-20.781999588012695 -449.5669860839844,19.81800079345703 -444.0270080566406,60.358001708984375 C-443.0220031738281,67.71800231933594 -436.8949890136719,73.24800109863281 -429.4849853515625,73.73799896240234 C-429.4849853515625,73.73799896240234 -349.5169982910156,79.06800079345703 -349.5169982910156,79.06800079345703 C-340.6889953613281,118.25800323486328 -325.2099914550781,156.25799560546875 -303.0790100097656,191.25799560546875 C-303.0790100097656,191.25799560546875 -355.8340148925781,251.54800415039062 -355.8340148925781,251.54800415039062 C-360.7239990234375,257.13800048828125 -361.1499938964844,265.37799072265625 -356.6579895019531,271.2879943847656 C-331.90399169921875,303.87799072265625 -303.0899963378906,332.4679870605469 -271.260986328125,356.62799072265625 C-265.34698486328125,361.1180114746094 -257.1090087890625,360.697998046875 -251.52099609375,355.8080139160156 C-251.52099609375,355.8080139160156 -191.25900268554688,303.0769958496094 -191.25900268554688,303.0769958496094 C-156.26100158691406,325.2070007324219 -118.26499938964844,340.68798828125 -79.0719985961914,349.51800537109375 C-79.0719985961914,349.51800537109375 -73.74199676513672,429.447998046875 -73.74199676513672,429.447998046875 C-73.25199890136719,436.8479919433594 -67.72200012207031,442.9779968261719 -60.37200164794922,443.9880065917969 C-20.781999588012695,449.4079895019531 19.81800079345703,449.5679931640625 60.358001708984375,444.02801513671875 C67.71800231933594,443.01800537109375 73.24800109863281,436.88800048828125 73.73799896240234,429.4779968261719 C73.73799896240234,429.4779968261719 79.06800079345703,349.51800537109375 79.06800079345703,349.51800537109375 C118.25800323486328,340.68798828125 156.25799560546875,325.2070007324219 191.25799560546875,303.0769958496094 C191.25799560546875,303.0769958496094 251.54800415039062,355.8280029296875 251.54800415039062,355.8280029296875 C257.13800048828125,360.7179870605469 265.37799072265625,361.14801025390625 271.2879943847656,356.6579895019531 C303.87799072265625,331.89801025390625 332.4679870605469,303.0880126953125 356.62799072265625,271.25799560546875 C361.1180114746094,265.3479919433594 360.697998046875,257.1080017089844 355.8080139160156,251.51800537109375 C355.8080139160156,251.51800537109375 303.0769958496094,191.25799560546875 303.0769958496094,191.25799560546875z M341.39801025390625,69.58799743652344 C341.39801025390625,69.58799743652344 339.75799560546875,76.86799621582031 339.75799560546875,76.86799621582031 C331.1780090332031,114.96800231933594 316.12799072265625,151.8979949951172 294.62799072265625,185.9080047607422 C294.62799072265625,185.9080047607422 290.63800048828125,192.21800231933594 290.63800048828125,192.21800231933594 C290.63800048828125,192.21800231933594 348.27801513671875,258.1080017089844 348.27801513671875,258.1080017089844 C350.1579895019531,260.24798583984375 350.18798828125,263.2179870605469 348.6679992675781,265.2080078125 C325.0480041503906,296.3280029296875 297.0979919433594,324.49798583984375 265.2380065917969,348.68798828125 C263.24798583984375,350.2080078125 260.27801513671875,350.18798828125 258.12799072265625,348.3080139160156 C258.12799072265625,348.3080139160156 192.21800231933594,290.63800048828125 192.21800231933594,290.63800048828125 C192.21800231933594,290.63800048828125 185.9080047607422,294.62799072265625 185.9080047607422,294.62799072265625 C151.8979949951172,316.12799072265625 114.96800231933594,331.1780090332031 76.86799621582031,339.75799560546875 C76.86799621582031,339.75799560546875 69.58799743652344,341.39801025390625 69.58799743652344,341.39801025390625 C69.58799743652344,341.39801025390625 63.757999420166016,428.8179931640625 63.757999420166016,428.8179931640625 C63.56800079345703,431.6579895019531 61.487998962402344,433.77801513671875 59.007999420166016,434.1180114746094 C19.378000259399414,439.52801513671875 -20.302000045776367,439.37701416015625 -59.012001037597656,434.0769958496094 C-61.50199890136719,433.73699951171875 -63.571998596191406,431.62799072265625 -63.762001037597656,428.77801513671875 C-63.762001037597656,428.77801513671875 -69.59200286865234,341.39801025390625 -69.59200286865234,341.39801025390625 C-69.59200286865234,341.39801025390625 -76.87200164794922,339.75799560546875 -76.87200164794922,339.75799560546875 C-114.9729995727539,331.1780090332031 -151.90199279785156,316.12799072265625 -185.9149932861328,294.62799072265625 C-185.9149932861328,294.62799072265625 -192.22500610351562,290.63800048828125 -192.22500610351562,290.63800048828125 C-192.22500610351562,290.63800048828125 -258.1059875488281,348.27801513671875 -258.1059875488281,348.27801513671875 C-260.25201416015625,350.1579895019531 -263.2179870605469,350.18798828125 -265.2149963378906,348.6679992675781 C-296.3320007324219,325.0480041503906 -324.49798583984375,297.0979919433594 -348.69500732421875,265.2380065917969 C-350.21099853515625,263.24798583984375 -350.1860046386719,260.27801513671875 -348.3080139160156,258.12799072265625 C-348.3080139160156,258.12799072265625 -290.6369934082031,192.21800231933594 -290.6369934082031,192.21800231933594 C-290.6369934082031,192.21800231933594 -294.62701416015625,185.9080047607422 -294.62701416015625,185.9080047607422 C-316.135009765625,151.8979949951172 -331.17999267578125,114.96800231933594 -339.760986328125,76.86799621582031 C-339.760986328125,76.86799621582031 -341.4020080566406,69.58799743652344 -341.4020080566406,69.58799743652344 C-341.4020080566406,69.58799743652344 -428.82000732421875,63.757999420166016 -428.82000732421875,63.757999420166016 C-431.6650085449219,63.56800079345703 -433.7799987792969,61.487998962402344 -434.1189880371094,59.007999420166016 C-439.53399658203125,19.378000259399414 -439.3810119628906,-20.302000045776367 -434.08099365234375,-59.012001037597656 C-433.7409973144531,-61.50199890136719 -431.6260070800781,-63.571998596191406 -428.781005859375,-63.762001037597656 C-428.781005859375,-63.762001037597656 -341.4020080566406,-69.59200286865234 -341.4020080566406,-69.59200286865234 C-341.4020080566406,-69.59200286865234 -339.760986328125,-76.87200164794922 -339.760986328125,-76.87200164794922 C-331.17999267578125,-114.9739990234375 -316.135009765625,-151.90199279785156 -294.62701416015625,-185.9149932861328 C-294.62701416015625,-185.9149932861328 -290.6369934082031,-192.2259979248047 -290.6369934082031,-192.2259979248047 C-290.6369934082031,-192.2259979248047 -348.2820129394531,-258.1059875488281 -348.2820129394531,-258.1059875488281 C-350.1600036621094,-260.25299072265625 -350.1860046386719,-263.2179870605469 -348.6700134277344,-265.2149963378906 C-325.0480041503906,-296.3330078125 -297.0979919433594,-324.49798583984375 -265.2430114746094,-348.69500732421875 C-263.24700927734375,-350.21099853515625 -260.2820129394531,-350.1860046386719 -258.135009765625,-348.3080139160156 C-258.135009765625,-348.3080139160156 -192.22500610351562,-290.6369934082031 -192.22500610351562,-290.6369934082031 C-192.22500610351562,-290.6369934082031 -185.9149932861328,-294.62701416015625 -185.9149932861328,-294.62701416015625 C-151.90199279785156,-316.135009765625 -114.9729995727539,-331.17999267578125 -76.87200164794922,-339.760986328125 C-76.87200164794922,-339.760986328125 -69.59200286865234,-341.4020080566406 -69.59200286865234,-341.4020080566406 C-69.59200286865234,-341.4020080566406 -63.762001037597656,-428.82000732421875 -63.762001037597656,-428.82000732421875 C-63.571998596191406,-431.6659851074219 -61.492000579833984,-433.7799987792969 -59.012001037597656,-434.1189880371094 C-19.371999740600586,-439.53399658203125 20.29800033569336,-439.3819885253906 59.007999420166016,-434.0820007324219 C61.49800109863281,-433.7409973144531 63.56800079345703,-431.62701416015625 63.757999420166016,-428.781005859375 C63.757999420166016,-428.781005859375 69.58799743652344,-341.4020080566406 69.58799743652344,-341.4020080566406 C69.58799743652344,-341.4020080566406 76.86799621582031,-339.760986328125 76.86799621582031,-339.760986328125 C114.96800231933594,-331.17999267578125 151.8979949951172,-316.135009765625 185.9080047607422,-294.62701416015625 C185.9080047607422,-294.62701416015625 192.21800231933594,-290.6369934082031 192.21800231933594,-290.6369934082031 C192.21800231933594,-290.6369934082031 258.1080017089844,-348.2829895019531 258.1080017089844,-348.2829895019531 C260.24798583984375,-350.1610107421875 263.2179870605469,-350.1860046386719 265.2080078125,-348.6700134277344 C296.3280029296875,-325.0480041503906 324.49798583984375,-297.0979919433594 348.68798828125,-265.2430114746094 C350.2080078125,-263.24700927734375 350.18798828125,-260.2820129394531 348.3080139160156,-258.135986328125 C348.3080139160156,-258.135986328125 290.63800048828125,-192.22500610351562 290.63800048828125,-192.22500610351562 C290.63800048828125,-192.22500610351562 294.62799072265625,-185.9149932861328 294.62799072265625,-185.9149932861328 C316.12799072265625,-151.90199279785156 331.1780090332031,-114.9739990234375 339.75799560546875,-76.87200164794922 C339.75799560546875,-76.87200164794922 341.39801025390625,-69.59200286865234 341.39801025390625,-69.59200286865234 C341.39801025390625,-69.59200286865234 428.8179931640625,-63.762001037597656 428.8179931640625,-63.762001037597656 C431.6579895019531,-63.571998596191406 433.77801513671875,-61.492000579833984 434.1180114746094,-59.012001037597656 C439.52801513671875,-19.371999740600586 439.37701416015625,20.308000564575195 434.0769958496094,59.007999420166016 C433.73699951171875,61.49800109863281 431.62799072265625,63.56800079345703 428.77801513671875,63.757999420166016 C428.77801513671875,63.757999420166016 341.39801025390625,69.58799743652344 341.39801025390625,69.58799743652344z"/>
    </g>
  </g>
</svg>