<svg xmlns="http://www.w3.org/2000/svg" viewBox="0 0 1024 1024" class="fox-alarm-cog-svg fox-alarm-cog-svg--single" aria-hidden="true">
  <g class="fox-alarm-cog-gear fox-alarm-cog-gear--gray" data-pivot="512 512">
    <g transform="matrix(0.8079075813293457,0.5893091559410095,-0.5893091559410095,0.8079075813293457,512,512)">
    <path fill="#f5f5f5" d="M193.4239959716797,0.6759999990463257 C193.4239959716797,-105.7750015258789 107.12799835205078,-192.0709991455078 0.6769999861717224,-192.0709991455078 C-105.7750015258789,-192.0709991455078 -192.07000732421875,-105.7750015258789 -192.07000732421875,0.6759999990463257 C-192.07000732421875,107.12799835205078 -105.7750015258789,193.42300415039062 0.6769999861717224,193.42300415039062 C107.12799835205078,193.42300415039062 193.4239959716797,107.12799835205078 193.4239959716797,0.6759999990463257z M387.0889892578125,225.6790008544922 C383.3429870605469,232.09100341796875 375.57000732421875,234.8489990234375 368.5350036621094,232.47000122070312 C368.5350036621094,232.47000122070312 292.6510009765625,206.80499267578125 292.6510009765625,206.80499267578125 C269.49700927734375,239.63600158691406 240.656005859375,268.8160095214844 206.8159942626953,292.6820068359375 C206.8159942626953,292.6820068359375 232.47000122070312,368.5350036621094 232.47000122070312,368.5350036621094 C234.8489990234375,375.5690002441406 232.09100341796875,383.3429870605469 225.67999267578125,387.0889892578125 C191.17599487304688,407.24798583984375 153.73399353027344,422.927001953125 114.15299987792969,433.32598876953125 C106.97000122070312,435.2130126953125 99.52200317382812,431.6659851074219 96.2300033569336,425.010009765625 C96.2300033569336,425.010009765625 60.715999603271484,353.197998046875 60.715999603271484,353.197998046875 C19.913000106811523,360.2510070800781 -21.114999771118164,360.010986328125 -60.70199966430664,353.16900634765625 C-60.70199966430664,353.16900634765625 -96.2300033569336,425.010009765625 -96.2300033569336,425.010009765625 C-99.52200317382812,431.6659851074219 -106.97100067138672,435.2130126953125 -114.15299987792969,433.32598876953125 C-153.73500061035156,422.927001953125 -191.17599487304688,407.24798583984375 -225.67999267578125,387.0889892578125 C-232.09100341796875,383.3420104980469 -234.85000610351562,375.5690002441406 -232.4709930419922,368.5350036621094 C-232.4709930419922,368.5350036621094 -206.80599975585938,292.6499938964844 -206.80599975585938,292.6499938964844 C-239.63699340820312,269.49700927734375 -268.8169860839844,240.65499877929688 -292.6820068359375,206.8159942626953 C-292.6820068359375,206.8159942626953 -368.5350036621094,232.47000122070312 -368.5350036621094,232.47000122070312 C-375.5690002441406,234.8489990234375 -383.3429870605469,232.09100341796875 -387.0889892578125,225.6790008544922 C-407.2489929199219,191.17599487304688 -422.927001953125,153.73399353027344 -433.32598876953125,114.15299987792969 C-435.2130126953125,106.97000122070312 -431.6669921875,99.52100372314453 -425.010009765625,96.22899627685547 C-425.010009765625,96.22899627685547 -353.1990051269531,60.715999603271484 -353.1990051269531,60.715999603271484 C-360.2510070800781,19.913000106811523 -360.0119934082031,-21.114999771118164 -353.16900634765625,-60.70199966430664 C-353.16900634765625,-60.70199966430664 -425.010009765625,-96.2300033569336 -425.010009765625,-96.2300033569336 C-431.6669921875,-99.52200317382812 -435.2130126953125,-106.97100067138672 -433.32598876953125,-114.15299987792969 C-422.927001953125,-153.73500061035156 -407.2489929199219,-191.177001953125 -387.0889892578125,-225.67999267578125 C-383.3429870605469,-232.0919952392578 -375.5690002441406,-234.85000610351562 -368.5350036621094,-232.4709930419922 C-368.5350036621094,-232.4709930419922 -292.6510009765625,-206.80599975585938 -292.6510009765625,-206.80599975585938 C-269.49700927734375,-239.63699340820312 -240.656005859375,-268.8169860839844 -206.8159942626953,-292.6820068359375 C-206.8159942626953,-292.6820068359375 -232.47000122070312,-368.5360107421875 -232.47000122070312,-368.5360107421875 C-234.8489990234375,-375.57000732421875 -232.09100341796875,-383.3429870605469 -225.67999267578125,-387.0889892578125 C-191.17599487304688,-407.2489929199219 -153.73399353027344,-422.927001953125 -114.15299987792969,-433.32598876953125 C-106.97000122070312,-435.2130126953125 -99.52200317382812,-431.6669921875 -96.2300033569336,-425.010009765625 C-96.2300033569336,-425.010009765625 -60.715999603271484,-353.1990051269531 -60.715999603271484,-353.1990051269531 C-19.913000106811523,-360.25201416015625 21.114999771118164,-360.0119934082031 60.70100021362305,-353.1700134277344 C60.70100021362305,-353.1700134277344 96.22899627685547,-425.010009765625 96.22899627685547,-425.010009765625 C99.52100372314453,-431.6669921875 106.97000122070312,-435.2130126953125 114.15299987792969,-433.32598876953125 C153.73399353027344,-422.927001953125 191.17599487304688,-407.2489929199219 225.6790008544922,-387.0899963378906 C232.09100341796875,-383.3429870605469 234.8489990234375,-375.57000732421875 232.47000122070312,-368.5360107421875 C232.47000122070312,-368.5360107421875 206.80499267578125,-292.6520080566406 206.80499267578125,-292.6520080566406 C239.63600158691406,-269.49798583984375 268.8169860839844,-240.656005859375 292.6820068359375,-206.81700134277344 C292.6820068359375,-206.81700134277344 368.5350036621094,-232.4709930419922 368.5350036621094,-232.4709930419922 C375.57000732421875,-234.85000610351562 383.3429870605469,-232.0919952392578 387.0889892578125,-225.67999267578125 C407.2489929199219,-191.17599487304688 422.927001953125,-153.73500061035156 433.32598876953125,-114.15299987792969 C435.2130126953125,-106.97100067138672 431.6669921875,-99.52200317382812 425.010009765625,-96.2300033569336 C425.010009765625,-96.2300033569336 353.1990051269531,-60.71699905395508 353.1990051269531,-60.71699905395508 C360.25201416015625,-19.913000106811523 360.0119934082031,21.11400032043457 353.16900634765625,60.70100021362305 C353.16900634765625,60.70100021362305 425.010009765625,96.22899627685547 425.010009765625,96.22899627685547 C431.6669921875,99.52100372314453 435.2130126953125,106.97000122070312 433.32598876953125,114.1520004272461 C422.927001953125,153.73399353027344 407.2489929199219,191.17599487304688 387.0889892578125,225.6790008544922z"/>
    <path fill="#d8d8d8" d="M0.6769999861717224,193.42300415039062 C-105.7750015258789,193.42300415039062 -192.07000732421875,107.12799835205078 -192.07000732421875,0.6759999990463257 C-192.07000732421875,-105.7750015258789 -105.7750015258789,-192.0709991455078 0.6769999861717224,-192.0709991455078 C107.12799835205078,-192.0709991455078 193.4239959716797,-105.7750015258789 193.4239959716797,0.6759999990463257 C193.4239959716797,107.12799835205078 107.12799835205078,193.42300415039062 0.6769999861717224,193.42300415039062z M203.4239959716797,0.6759999990463257 C203.4239959716797,-111.2979965209961 112.6510009765625,-202.0709991455078 0.6769999861717224,-202.0709991455078 C-111.2969970703125,-202.0709991455078 -202.07000732421875,-111.2979965209961 -202.07000732421875,0.6759999990463257 C-202.07000732421875,112.6500015258789 -111.2969970703125,203.42300415039062 0.6769999861717224,203.42300415039062 C112.6510009765625,203.42300415039062 203.4239959716797,112.6500015258789 203.4239959716797,0.6759999990463257z M206.8159942626953,292.6820068359375 C240.656005859375,268.8160095214844 269.49700927734375,239.63600158691406 292.6510009765625,206.80499267578125 C292.6510009765625,206.80499267578125 368.5350036621094,232.47000122070312 368.5350036621094,232.47000122070312 C375.57000732421875,234.8489990234375 383.3429870605469,232.09100341796875 387.0889892578125,225.6790008544922 C407.2489929199219,191.17599487304688 422.927001953125,153.73399353027344 433.32598876953125,114.1520004272461 C435.2130126953125,106.97000122070312 431.6669921875,99.52100372314453 425.010009765625,96.22899627685547 C425.010009765625,96.22899627685547 353.16900634765625,60.70100021362305 353.16900634765625,60.70100021362305 C360.0119934082031,21.11400032043457 360.25201416015625,-19.913000106811523 353.1990051269531,-60.71699905395508 C353.1990051269531,-60.71699905395508 425.010009765625,-96.2300033569336 425.010009765625,-96.2300033569336 C431.6669921875,-99.52200317382812 435.2130126953125,-106.97100067138672 433.32598876953125,-114.15299987792969 C422.927001953125,-153.73500061035156 407.2489929199219,-191.17599487304688 387.0889892578125,-225.67999267578125 C383.3429870605469,-232.0919952392578 375.57000732421875,-234.85000610351562 368.5350036621094,-232.4709930419922 C368.5350036621094,-232.4709930419922 292.6820068359375,-206.81700134277344 292.6820068359375,-206.81700134277344 C268.8169860839844,-240.656005859375 239.63600158691406,-269.49798583984375 206.80499267578125,-292.6520080566406 C206.80499267578125,-292.6520080566406 232.47000122070312,-368.5360107421875 232.47000122070312,-368.5360107421875 C234.8489990234375,-375.57000732421875 232.09100341796875,-383.3429870605469 225.6790008544922,-387.0899963378906 C191.17599487304688,-407.2489929199219 153.73399353027344,-422.927001953125 114.15299987792969,-433.32598876953125 C106.97000122070312,-435.2130126953125 99.52100372314453,-431.6669921875 96.22899627685547,-425.010009765625 C96.22899627685547,-425.010009765625 60.70100021362305,-353.1700134277344 60.70100021362305,-353.1700134277344 C21.114999771118164,-360.0119934082031 -19.913000106811523,-360.25201416015625 -60.715999603271484,-353.1990051269531 C-60.715999603271484,-353.1990051269531 -96.2300033569336,-425.010009765625 -96.2300033569336,-425.010009765625 C-99.52200317382812,-431.6669921875 -106.97000122070312,-435.2130126953125 -114.15299987792969,-433.32598876953125 C-153.73399353027344,-422.927001953125 -191.17599487304688,-407.2489929199219 -225.67999267578125,-387.0889892578125 C-232.09100341796875,-383.3429870605469 -234.8489990234375,-375.57000732421875 -232.47000122070312,-368.5360107421875 C-232.47000122070312,-368.5360107421875 -206.8159942626953,-292.6820068359375 -206.8159942626953,-292.6820068359375 C-240.656005859375,-268.8169860839844 -269.49700927734375,-239.63699340820312 -292.6510009765625,-206.80599975585938 C-292.6510009765625,-206.80599975585938 -368.5350036621094,-232.4709930419922 -368.5350036621094,-232.4709930419922 C-375.5690002441406,-234.85000610351562 -383.3429870605469,-232.0919952392578 -387.0889892578125,-225.67999267578125 C-407.2489929199219,-191.177001953125 -422.927001953125,-153.73500061035156 -433.32598876953125,-114.15299987792969 C-435.2130126953125,-106.97100067138672 -431.6669921875,-99.52200317382812 -425.010009765625,-96.2300033569336 C-425.010009765625,-96.2300033569336 -353.16900634765625,-60.70199966430664 -353.16900634765625,-60.70199966430664 C-360.0119934082031,-21.114999771118164 -360.2510070800781,19.913000106811523 -353.1990051269531,60.715999603271484 C-353.1990051269531,60.715999603271484 -425.010009765625,96.22899627685547 -425.010009765625,96.22899627685547 C-431.6669921875,99.52100372314453 -435.2130126953125,106.97000122070312 -433.32598876953125,114.15299987792969 C-422.927001953125,153.73399353027344 -407.2489929199219,191.17599487304688 -387.0889892578125,225.6790008544922 C-383.3429870605469,232.09100341796875 -375.5690002441406,234.8489990234375 -368.5350036621094,232.47000122070312 C-368.5350036621094,232.47000122070312 -292.6820068359375,206.8159942626953 -292.6820068359375,206.8159942626953 C-268.8169860839844,240.65499877929688 -239.63699340820312,269.49700927734375 -206.80599975585938,292.6499938964844 C-206.80599975585938,292.6499938964844 -232.4709930419922,368.5350036621094 -232.4709930419922,368.5350036621094 C-234.85000610351562,375.5690002441406 -232.09100341796875,383.3420104980469 -225.67999267578125,387.0889892578125 C-191.17599487304688,407.24798583984375 -153.73500061035156,422.927001953125 -114.15299987792969,433.32598876953125 C-106.97100067138672,435.2130126953125 -99.52200317382812,431.6659851074219 -96.2300033569336,425.010009765625 C-96.2300033569336,425.010009765625 -60.70199966430664,353.16900634765625 -60.70199966430664,353.16900634765625 C-21.114999771118164,360.010986328125 19.913000106811523,360.2510070800781 60.715999603271484,353.197998046875 C60.715999603271484,353.197998046875 96.2300033569336,425.010009765625 96.2300033569336,425.010009765625 C99.52200317382812,431.6659851074219 106.97000122070312,435.2130126953125 114.15299987792969,433.32598876953125 C153.73399353027344,422.927001953125 191.17599487304688,407.24798583984375 225.67999267578125,387.0889892578125 C232.09100341796875,383.3429870605469 234.8489990234375,375.5690002441406 232.47000122070312,368.5350036621094 C232.47000122070312,368.5350036621094 206.8159942626953,292.6820068359375 206.8159942626953,292.6820068359375z M288.7820129394531,194.94000244140625 C288.7820129394531,194.94000244140625 284.47900390625,201.04200744628906 284.47900390625,201.04200744628906 C261.97100830078125,232.95599365234375 233.93899536132812,261.3160095214844 201.05299377441406,284.510009765625 C201.05299377441406,284.510009765625 194.9510040283203,288.81298828125 194.9510040283203,288.81298828125 C194.9510040283203,288.81298828125 222.9969940185547,371.739013671875 222.9969940185547,371.739013671875 C223.91099548339844,374.44000244140625 222.8000030517578,377.19000244140625 220.63499450683594,378.4549865722656 C186.9029998779297,398.16400146484375 150.302001953125,413.489013671875 111.61199951171875,423.65399169921875 C109.18800354003906,424.2909851074219 106.45800018310547,423.13299560546875 105.19400024414062,420.5769958496094 C105.19400024414062,420.5769958496094 66.37000274658203,342.072998046875 66.37000274658203,342.072998046875 C66.37000274658203,342.072998046875 59.01300048828125,343.343994140625 59.01300048828125,343.343994140625 C19.358999252319336,350.1990051269531 -20.517000198364258,349.9670104980469 -58.999000549316406,343.31500244140625 C-58.999000549316406,343.31500244140625 -66.35600280761719,342.0429992675781 -66.35600280761719,342.0429992675781 C-66.35600280761719,342.0429992675781 -105.19400024414062,420.5769958496094 -105.19400024414062,420.5769958496094 C-106.45800018310547,423.13299560546875 -109.18800354003906,424.2909851074219 -111.61199951171875,423.65399169921875 C-150.302001953125,413.489013671875 -186.9029998779297,398.1629943847656 -220.63499450683594,378.4540100097656 C-222.8000030517578,377.1889953613281 -223.91099548339844,374.44000244140625 -222.9980010986328,371.739013671875 C-222.9980010986328,371.739013671875 -194.9409942626953,288.781005859375 -194.9409942626953,288.781005859375 C-194.9409942626953,288.781005859375 -201.04299926757812,284.4779968261719 -201.04299926757812,284.4779968261719 C-232.95700073242188,261.97100830078125 -261.3169860839844,233.93899536132812 -284.510009765625,201.052001953125 C-284.510009765625,201.052001953125 -288.81298828125,194.9510040283203 -288.81298828125,194.9510040283203 C-288.81298828125,194.9510040283203 -371.739013671875,222.9969940185547 -371.739013671875,222.9969940185547 C-374.4410095214844,223.91099548339844 -377.19000244140625,222.8000030517578 -378.4549865722656,220.63499450683594 C-398.16400146484375,186.90199279785156 -413.489013671875,150.30099487304688 -423.65399169921875,111.61199951171875 C-424.2909851074219,109.18800354003906 -423.13299560546875,106.45700073242188 -420.5769958496094,105.19300079345703 C-420.5769958496094,105.19300079345703 -342.072998046875,66.37000274658203 -342.072998046875,66.37000274658203 C-342.072998046875,66.37000274658203 -343.3450012207031,59.01300048828125 -343.3450012207031,59.01300048828125 C-350.1990051269531,19.357999801635742 -349.9670104980469,-20.517000198364258 -343.31500244140625,-58.999000549316406 C-343.31500244140625,-58.999000549316406 -342.0429992675781,-66.35600280761719 -342.0429992675781,-66.35600280761719 C-342.0429992675781,-66.35600280761719 -420.5769958496094,-105.19400024414062 -420.5769958496094,-105.19400024414062 C-423.13299560546875,-106.45800018310547 -424.2909851074219,-109.18800354003906 -423.65399169921875,-111.61199951171875 C-413.489013671875,-150.302001953125 -398.16400146484375,-186.9029998779297 -378.4549865722656,-220.63499450683594 C-377.19000244140625,-222.80099487304688 -374.44000244140625,-223.91200256347656 -371.739013671875,-222.9980010986328 C-371.739013671875,-222.9980010986328 -288.7820129394531,-194.9409942626953 -288.7820129394531,-194.9409942626953 C-288.7820129394531,-194.9409942626953 -284.47900390625,-201.04299926757812 -284.47900390625,-201.04299926757812 C-261.97100830078125,-232.95700073242188 -233.93899536132812,-261.3169860839844 -201.05299377441406,-284.510009765625 C-201.05299377441406,-284.510009765625 -194.9510040283203,-288.81298828125 -194.9510040283203,-288.81298828125 C-194.9510040283203,-288.81298828125 -222.9969940185547,-371.739013671875 -222.9969940185547,-371.739013671875 C-223.91099548339844,-374.4410095214844 -222.8000030517578,-377.19000244140625 -220.63499450683594,-378.4549865722656 C-186.90199279785156,-398.16400146484375 -150.302001953125,-413.489013671875 -111.61199951171875,-423.65399169921875 C-109.18800354003906,-424.2909851074219 -106.45800018310547,-423.1340026855469 -105.19400024414062,-420.5769958496094 C-105.19400024414062,-420.5769958496094 -66.37000274658203,-342.072998046875 -66.37000274658203,-342.072998046875 C-66.37000274658203,-342.072998046875 -59.01300048828125,-343.3450012207031 -59.01300048828125,-343.3450012207031 C-19.358999252319336,-350.1990051269531 20.516000747680664,-349.9670104980469 58.99800109863281,-343.3160095214844 C58.99800109863281,-343.3160095214844 66.3550033569336,-342.04400634765625 66.3550033569336,-342.04400634765625 C66.3550033569336,-342.04400634765625 105.19300079345703,-420.5769958496094 105.19300079345703,-420.5769958496094 C106.45700073242188,-423.13299560546875 109.18800354003906,-424.2919921875 111.61199951171875,-423.6549987792969 C150.302001953125,-413.489990234375 186.90199279785156,-398.16400146484375 220.63499450683594,-378.4549865722656 C222.8000030517578,-377.19000244140625 223.91099548339844,-374.4410095214844 222.9969940185547,-371.739990234375 C222.9969940185547,-371.739990234375 194.94000244140625,-288.7829895019531 194.94000244140625,-288.7829895019531 C194.94000244140625,-288.7829895019531 201.04200744628906,-284.47900390625 201.04200744628906,-284.47900390625 C232.95700073242188,-261.97198486328125 261.3169860839844,-233.94000244140625 284.510009765625,-201.05299377441406 C284.510009765625,-201.05299377441406 288.81298828125,-194.95199584960938 288.81298828125,-194.95199584960938 C288.81298828125,-194.95199584960938 371.739013671875,-222.9980010986328 371.739013671875,-222.9980010986328 C374.4410095214844,-223.91099548339844 377.19000244140625,-222.8000030517578 378.4549865722656,-220.63499450683594 C398.16400146484375,-186.9029998779297 413.489990234375,-150.302001953125 423.65399169921875,-111.61199951171875 C424.2909851074219,-109.18800354003906 423.1340026855469,-106.45800018310547 420.5769958496094,-105.19400024414062 C420.5769958496094,-105.19400024414062 342.072998046875,-66.37100219726562 342.072998046875,-66.37100219726562 C342.072998046875,-66.37100219726562 343.3450012207031,-59.01300048828125 343.3450012207031,-59.01300048828125 C350.1990051269531,-19.358999252319336 349.9670104980469,20.516000747680664 343.31500244140625,58.99800109863281 C343.31500244140625,58.99800109863281 342.04400634765625,66.3550033569336 342.04400634765625,66.3550033569336 C342.04400634765625,66.3550033569336 420.5769958496094,105.19300079345703 420.5769958496094,105.19300079345703 C423.1340026855469,106.45700073242188 424.2909851074219,109.18699645996094 423.65399169921875,111.61100006103516 C413.489990234375,150.30099487304688 398.16400146484375,186.90199279785156 378.4549865722656,220.63400268554688 C377.19000244140625,222.7989959716797 374.4410095214844,223.91099548339844 371.739013671875,222.9969940185547 C371.739013671875,222.9969940185547 288.7820129394531,194.94000244140625 288.7820129394531,194.94000244140625z"/>
    </g>
  </g>
</svg>