<svg xmlns="http://www.w3.org/2000/svg" viewBox="0 0 16 16" fill="none">
<g id="Icon / RollbackOutlined">
<path id="Vector" d="M12.3906 3.78089H5.71875V2.62464C5.71875 2.51995 5.59844 2.46214 5.51719 2.5262L3.29844 4.27621C3.2835 4.2879 3.27141 4.30284 3.2631 4.31989C3.2548 4.33695 3.25048 4.35567 3.25048 4.37464C3.25048 4.39361 3.2548 4.41234 3.2631 4.42939C3.27141 4.44645 3.2835 4.46139 3.29844 4.47308L5.51719 6.22308C5.59844 6.28714 5.71875 6.22933 5.71875 6.12464V4.96839H12.2031V12.3121H2.73438C2.66562 12.3121 2.60938 12.3684 2.60938 12.4371V13.3746C2.60938 13.4434 2.66562 13.4996 2.73438 13.4996H12.3906C12.9422 13.4996 13.3906 13.0512 13.3906 12.4996V4.78089C13.3906 4.22933 12.9422 3.78089 12.3906 3.78089Z" fill="black" fill-opacity="0.88" />
</g>
</svg>