<svg xmlns="http://www.w3.org/2000/svg" viewBox="0 0 14 14" fill="none">
<path d="M12.25 5.54167V7.29167C12.25 8.74143 9.89952 9.91667 7 9.91667C4.10051 9.91667 1.75 8.74143 1.75 7.29167V5.54167C1.75 6.99143 4.10051 8.16667 7 8.16667C9.89952 8.16667 12.25 6.99143 12.25 5.54167ZM1.75 8.45833C1.75 9.90809 4.10051 11.0833 7 11.0833C9.89952 11.0833 12.25 9.90809 12.25 8.45833V10.2083C12.25 11.6581 9.89952 12.8333 7 12.8333C4.10051 12.8333 1.75 11.6581 1.75 10.2083V8.45833ZM7 7C4.10051 7 1.75 5.82475 1.75 4.375C1.75 2.92525 4.10051 1.75 7 1.75C9.89952 1.75 12.25 2.92525 12.25 4.375C12.25 5.82475 9.89952 7 7 7Z" fill="#B28600" />
</svg>