<svg xmlns="http://www.w3.org/2000/svg" viewBox="0 0 20 20" fill="none">
<g id="Frame 272">
<path d="M0 2C0 0.895431 0.895431 0 2 0H18C19.1046 0 20 0.895431 20 2V18C20 19.1046 19.1046 20 18 20H2C0.895431 20 0 19.1046 0 18V2Z" fill="#894BFC" />
<g id="Icon/ChargeOutline">
<path id="vector" fill-rule="evenodd" clip-rule="evenodd" d="M12.5 3.25C12.5 3.11193 12.3881 3 12.25 3H7.82812C7.69005 3 7.57812 3.11193 7.57812 3.25V4H4.25C4.11193 4 4 4.11193 4 4.25V4.875C4 5.01307 4.11193 5.125 4.25 5.125H5V14.9375H4.25C4.11193 14.9375 4 15.0494 4 15.1875V15.8125C4 15.9506 4.11193 16.0625 4.25 16.0625H15.75C15.8881 16.0625 16 15.9506 16 15.8125V15.1875C16 15.0494 15.8881 14.9375 15.75 14.9375H15V5.125H15.75C15.8881 5.125 16 5.01307 16 4.875V4.25C16 4.11193 15.8881 4 15.75 4H12.5V3.25ZM9.5 10.7H7.5L10.5 6.5V9.3H12.5L9.5 13.5V10.7Z" fill="white" />
</g>
</g>
</svg>