<svg xmlns="http://www.w3.org/2000/svg" viewBox="0 0 48 48" fill="none">
<rect width="48" height="48" rx="10" fill="#894BFC" />
<path fill-rule="evenodd" clip-rule="evenodd" d="M27.2427 10.0007C26.6165 10.6391 26.1184 11.4025 25.7883 12.2507H20.8534L19.7974 16.0007H25.468C25.6131 16.7158 25.8742 17.3886 26.2284 18.0007H19.2349L17.8286 23.0007H30.1737L29.576 20.877C30.3276 21.1707 31.1449 21.3339 32.0005 21.334C32.0138 21.334 32.0276 21.3328 32.0409 21.3327L32.5109 23.0007H35.5005C35.7766 23.0007 36.0005 23.2245 36.0005 23.5007V24.5007C36.0005 24.7768 35.7766 25.0006 35.5005 25.0007H33.0747L36.6476 37.7012C36.7072 37.9142 36.4811 38.0939 36.287 37.9876L24.0005 31.2598L11.714 37.9876C11.5201 38.0933 11.2941 37.9139 11.3534 37.7012L14.9276 25.0007H12.5005C12.2246 25.0004 12.0005 24.7766 12.0005 24.5007V23.5007C12.0005 23.2247 12.2246 23.0009 12.5005 23.0007H15.4901L16.8976 18.0007H15.5005C15.2246 18.0004 15.0005 17.7766 15.0005 17.5007V16.5007C15.0005 16.2247 15.2246 16.0009 15.5005 16.0007H17.4601L18.9953 10.5475C19.0863 10.2242 19.3808 10.0008 19.7167 10.0007H27.2427ZM14.8091 33.7285L21.6581 29.9772L16.6385 27.2285L14.8091 33.7285ZM26.343 29.9772L33.1932 33.7285L31.3638 27.2285L26.343 29.9772ZM17.2635 25.0059L24.0005 28.6947L30.7388 25.0059L30.7375 25.0007H17.2648L17.2635 25.0059Z" fill="white" />
<path d="M32.0005 13.334H37.3338V16.0007H32.0005V20.0007L26.6672 14.6673L32.0005 9.33398V13.334Z" fill="white" />
</svg>