<svg xmlns="http://www.w3.org/2000/svg" viewBox="0 0 48 48" fill="none">
<g id="Group 1739332921">
<rect id="Rectangle 34625408" width="48" height="48" rx="4" fill="#F78805" />
<g id="Frame 1321316320">
<path id="Vector" d="M16.2218 31.7782C18.2124 33.7688 20.9624 35 24 35C30.0751 35 35 30.0751 35 24C35 17.9249 30.0751 13 24 13C20.9624 13 18.2124 14.2312 16.2218 16.2218C15.2086 17.2351 13 19.7222 13 19.7222" stroke="white" stroke-width="2" stroke-linecap="round" stroke-linejoin="round" />
<path id="Vector_2" d="M13 15V20H18" stroke="white" stroke-width="2" stroke-linecap="round" stroke-linejoin="round" />
<path id="Vector_3" d="M27.583 25.6903C27.583 24.9444 27.3607 24.5984 26.9956 24.3282C26.821 24.1984 26.5988 24.0687 26.1543 23.8525C25.6622 23.6147 25.1701 23.3985 24.6621 23.1715C23.9796 22.8796 23.4398 22.6526 23.297 22.4472C23.2493 22.3715 23.2176 22.2526 23.2176 22.058C23.2176 21.7012 23.2017 21.3013 23.9161 21.3013C24.2494 21.3013 24.6304 21.3337 24.7098 21.604C24.7415 21.7121 24.7415 21.7445 24.7415 21.9175V22.4796H27.3131C27.329 21.8959 27.3925 21.0634 26.821 20.577C26.2972 20.1121 25.4241 20.0581 24.6462 20.0148V18.75H23.3287V20.0148C22.5509 20.058 21.7096 20.1446 21.1698 20.5878C20.6301 21.0202 20.5666 21.6039 20.5666 22.1445C20.5666 22.9228 20.7888 23.2579 21.1698 23.539C21.5032 23.7876 22.0429 24.0363 22.1382 24.0795C22.5985 24.2957 23.0589 24.5228 23.5351 24.739C24.2018 25.0525 24.6463 25.2362 24.7891 25.4849C24.8685 25.6254 24.8685 25.8416 24.8685 25.8741C24.8685 26.1443 24.9161 26.5443 23.9637 26.5443C23.4081 26.5443 23.2176 26.3713 23.1541 26.1984C23.0906 26.0578 23.1065 25.8957 23.1065 25.8524V25.3119H20.4237C20.392 26.4146 20.4555 26.9119 21.0905 27.3334C21.6937 27.7226 22.4556 27.7875 22.7255 27.8091C22.916 27.8307 23.1224 27.8524 23.3287 27.8632V29.2469H24.6463V27.8632C25.4559 27.7983 26.1861 27.7226 26.8051 27.3335C27.5036 26.9011 27.583 26.2957 27.583 25.6903Z" fill="white" />
</g>
</g>
</svg>