<svg xmlns="http://www.w3.org/2000/svg" viewBox="0 0 32 32" fill="none">
<path d="M0 6C0 2.68629 2.68629 0 6 0H26C29.3137 0 32 2.68629 32 6V26C32 29.3137 29.3137 32 26 32H6C2.68629 32 0 29.3137 0 26V6Z" fill="url(#paint0_linear_10013_334)" />
<path d="M19.8129 11.2717C20.1975 11.4854 20.5146 11.8025 20.7283 12.1871L21.255 13.1353C21.2937 13.2049 21.3938 13.2049 21.4325 13.1353L21.9592 12.1871C22.1729 11.8025 22.49 11.4854 22.8746 11.2717L23.8228 10.745C23.8924 10.7063 23.8924 10.6062 23.8228 10.5675L22.8746 10.0408C22.49 9.82709 22.1729 9.51 21.9592 9.1254L21.4325 8.1772C21.3938 8.1076 21.2937 8.1076 21.255 8.1772L20.7283 9.12541C20.5146 9.51 20.1975 9.82709 19.8129 10.0408L18.8647 10.5675C18.7951 10.6062 18.7951 10.7063 18.8647 10.745L19.8129 11.2717Z" fill="white" />
<path d="M10.9039 18.5535C11.9722 19.147 12.853 20.0278 13.4465 21.0961L14.9098 23.73C15.0172 23.9233 15.2953 23.9233 15.4027 23.73L16.866 21.0961C17.4595 20.0278 18.3403 19.147 19.4086 18.5535L22.0425 17.0902C22.2358 16.9828 22.2358 16.7047 22.0425 16.5973L19.4086 15.134C18.3403 14.5405 17.4595 13.6597 16.866 12.5914L15.4027 9.95751C15.2953 9.76416 15.0172 9.76416 14.9098 9.95751L13.4465 12.5914C12.853 13.6597 11.9722 14.5405 10.9039 15.134L8.27001 16.5973C8.07666 16.7047 8.07666 16.9828 8.27001 17.0902L10.9039 18.5535Z" fill="white" />
<defs>
<linearGradient id="paint0_linear_10013_334" x1="32" y1="-1.90735e-06" x2="0" y2="-1.90735e-06" gradientUnits="userSpaceOnUse">
<stop stop-color="#1677FF" />
<stop offset="1" stop-color="#3DD180" />
</linearGradient>
</defs>
</svg>