<svg xmlns="http://www.w3.org/2000/svg" viewBox="0 0 32 32" fill="none">
<path d="M0 6C0 2.68629 2.68629 0 6 0H26C29.3137 0 32 2.68629 32 6V26C32 29.3137 29.3137 32 26 32H6C2.68629 32 0 29.3137 0 26V6Z" fill="#6155EB" />
<path d="M16.9569 16.6145H18.3317L16.0404 20.1786V17.6331H14.6656L16.9569 14.0683V16.6145Z" fill="white" />
<path fill-rule="evenodd" clip-rule="evenodd" d="M16.0875 10.1647C16.3205 9.95292 16.6768 9.95292 16.9098 10.1647L23.22 15.9014H21.3869V21.4007C21.3869 21.7382 21.1133 22.0117 20.7759 22.0117H12.2215C11.884 22.0117 11.6104 21.7382 11.6104 21.4007V15.9014H9.77734L16.0875 10.1647ZM12.8325 14.776V20.7897H20.1648V14.776L16.4987 11.4428L12.8325 14.776Z" fill="white" />
</svg>