<svg xmlns="http://www.w3.org/2000/svg" viewBox="0 0 32 32" fill="none">
<path d="M0 12.8C0 8.31958 0 6.07937 0.871948 4.36808C1.63893 2.86278 2.86278 1.63893 4.36808 0.871948C6.07937 0 8.31958 0 12.8 0H19.2C23.6804 0 25.9206 0 27.6319 0.871948C29.1372 1.63893 30.3611 2.86278 31.1281 4.36808C32 6.07937 32 8.31958 32 12.8V19.2C32 23.6804 32 25.9206 31.1281 27.6319C30.3611 29.1372 29.1372 30.3611 27.6319 31.1281C25.9206 32 23.6804 32 19.2 32H12.8C8.31958 32 6.07937 32 4.36808 31.1281C2.86278 30.3611 1.63893 29.1372 0.871948 27.6319C0 25.9206 0 23.6804 0 19.2V12.8Z" fill="#AD4E00" />
<path d="M17.7581 9.67833C19.2667 9.14302 20.8928 9.06305 21.9158 10.086C22.9388 11.109 22.8588 12.735 22.3235 14.2437C22.1213 14.8134 21.8417 15.4038 21.4946 16C21.8417 16.5962 22.1213 17.1867 22.3235 17.7565C22.8588 19.2651 22.9388 20.8911 21.9158 21.9141C20.8928 22.9371 19.2668 22.8571 17.7581 22.3218C17.1884 22.1196 16.598 21.84 16.0018 21.493C15.4056 21.84 14.8151 22.1196 14.2454 22.3218C12.7367 22.8571 11.1107 22.9371 10.0877 21.9141C9.0648 20.8911 9.14478 19.2657 9.68002 17.7571C9.88219 17.1874 10.1611 16.5963 10.5081 16C10.1611 15.4038 9.88219 14.8127 9.68002 14.243C9.14477 12.7344 9.06473 11.109 10.0877 10.086C11.1107 9.06304 12.7361 9.14308 14.2447 9.67833C14.8144 9.8805 15.4055 10.1594 16.0018 10.5064C16.5978 10.1595 17.1885 9.88048 17.7581 9.67833ZM11.4222 17.3701C11.2751 17.6695 11.1508 17.9618 11.0508 18.2437C10.5625 19.6197 10.7191 20.4886 11.1161 20.8857C11.5131 21.2827 12.3822 21.4399 13.7581 20.9517C14.0399 20.8517 14.3317 20.726 14.631 20.5789C14.0473 20.1391 13.4698 19.6393 12.9158 19.0853C12.3617 18.5311 11.862 17.9539 11.4222 17.3701ZM20.5806 17.3701C20.1408 17.9539 19.6411 18.5318 19.0869 19.086C18.533 19.6399 17.9555 20.1391 17.3717 20.5789C17.6712 20.7261 17.9634 20.851 18.2453 20.951C19.6214 21.4392 20.4904 21.2827 20.8874 20.8857C21.2844 20.4887 21.4409 19.6197 20.9528 18.2437C20.8527 17.9617 20.7277 17.6695 20.5806 17.3701ZM16.0018 12.2266C15.3143 12.6965 14.6167 13.2715 13.9449 13.9432C13.2732 14.6149 12.6982 15.3126 12.2283 16C12.6982 16.6874 13.2732 17.3852 13.9449 18.0569C14.6164 18.7283 15.3138 19.3029 16.001 19.7727C16.6885 19.3029 17.3868 18.7286 18.0586 18.0569C18.7302 17.3853 19.3046 16.6874 19.7745 16C19.3046 15.3127 18.7302 14.6149 18.0586 13.9432C17.3869 13.2715 16.6892 12.6965 16.0018 12.2266ZM16.0018 14.5455C16.805 14.5455 17.4563 15.1967 17.4563 16C17.4563 16.8034 16.805 17.4546 16.0018 17.4546C15.1984 17.4546 14.5472 16.8034 14.5472 16C14.5472 15.1967 15.1984 14.5455 16.0018 14.5455ZM13.7581 11.0491C12.382 10.5608 11.5131 10.7174 11.1161 11.1144C10.7191 11.5115 10.5625 12.3803 11.0508 13.7564C11.1507 14.0382 11.2752 14.3301 11.4222 14.6293C11.862 14.0456 12.3624 13.4689 12.9165 12.9148C13.4706 12.3607 14.0472 11.8603 14.631 11.4205C14.3318 11.2735 14.0399 11.149 13.7581 11.0491ZM20.8874 11.1144C20.4904 10.7174 19.6213 10.5609 18.2453 11.0491C17.9635 11.1491 17.6712 11.2734 17.3717 11.4205C17.9556 11.8603 18.5328 12.36 19.0869 12.9141C19.641 13.4681 20.1408 14.0456 20.5806 14.6293C20.7276 14.3302 20.8528 14.0388 20.9528 13.7572C21.441 12.381 21.2845 11.5115 20.8874 11.1144Z" fill="white" />
</svg>