<svg xmlns="http://www.w3.org/2000/svg" viewBox="0 0 48 48" fill="none">
<rect width="48" height="48" rx="10" fill="#1677FF" />
<path d="M18.6654 14.6667H22.6654V33.3333H18.6654V36H29.332V33.3333H25.332V14.6667H29.332V12H18.6654V14.6667ZM10.6654 17.3333C9.92899 17.3333 9.33203 17.9303 9.33203 18.6667V29.3333C9.33203 30.0697 9.92899 30.6667 10.6654 30.6667H18.6654V28H11.9987V20H18.6654V17.3333H10.6654ZM29.332 20H35.9987V28H29.332V30.6667H37.332C38.0684 30.6667 38.6654 30.0697 38.6654 29.3333V18.6667C38.6654 17.9303 38.0684 17.3333 37.332 17.3333H29.332V20Z" fill="white" />
</svg>