<svg xmlns="http://www.w3.org/2000/svg" viewBox="0 0 48 48" fill="none">
<rect width="48" height="48" rx="10" fill="#003EB3" />
<path d="M22.6875 11.3125C25.9302 11.3125 28.8887 12.529 31.1317 14.5305L29.1831 16.4791C27.4412 14.9733 25.1707 14.0625 22.6875 14.0625C17.1992 14.0625 12.75 18.5117 12.75 24C12.75 29.4883 17.1992 33.9375 22.6875 33.9375C28.0389 33.9375 32.4022 29.7076 32.6167 24.4089L35.1909 21.8346C35.312 22.5383 35.375 23.2618 35.375 24C35.375 31.0071 29.6946 36.6875 22.6875 36.6875C15.6804 36.6875 10 31.0071 10 24C10 16.9929 15.6804 11.3125 22.6875 11.3125Z" fill="white" />
<path d="M37.628 15.9791L23.4853 30.1218L15 21.6364L16.8853 19.7511L23.4853 26.3511L35.7413 14.0938L37.628 15.9791Z" fill="white" />
</svg>