<svg xmlns="http://www.w3.org/2000/svg" viewBox="0 0 48 48" fill="none">
<rect width="48" height="48" rx="10" fill="#894BFC" />
<path d="M13.8798 27.3672L18.4154 22.8316L22.1866 26.603L26.3958 22.3938L24.0052 20.0033H30.6719V26.6699L28.2814 24.2794L22.1866 30.3742L18.4154 26.603L15.1165 29.9018C17.0275 32.7758 20.2951 34.6699 24.0052 34.6699C29.8963 34.6699 34.6719 29.8943 34.6719 24.0032C34.6719 18.1122 29.8963 13.3366 24.0052 13.3366C18.1142 13.3366 13.3385 18.1122 13.3385 24.0032C13.3385 25.1787 13.5287 26.3096 13.8798 27.3672ZM11.8292 29.4448L11.8157 29.4314L11.8209 29.4262C11.0824 27.7694 10.6719 25.9343 10.6719 24.0032C10.6719 16.6395 16.6414 10.6699 24.0052 10.6699C31.369 10.6699 37.3386 16.6395 37.3386 24.0032C37.3386 31.3671 31.369 37.3366 24.0052 37.3366C18.5797 37.3366 13.911 34.096 11.8292 29.4448Z" fill="white" />
</svg>