<svg xmlns="http://www.w3.org/2000/svg" viewBox="0 0 48 48" fill="none">
<rect width="48" height="48" rx="10" fill="#08979C" />
<path d="M25.3346 23.9993H29.3346L22.668 33.3327V26.666H18.668L25.3346 17.3327V23.9993ZM22.668 15.9993H17.3346V34.666H30.668V15.9993H25.3346V13.3327H22.668V15.9993ZM20.0013 13.3327V11.9993C20.0013 11.263 20.5983 10.666 21.3346 10.666H26.668C27.4044 10.666 28.0013 11.263 28.0013 11.9993V13.3327H32.0013C32.7377 13.3327 33.3346 13.9296 33.3346 14.666V35.9993C33.3346 36.7357 32.7377 37.3327 32.0013 37.3327H16.0013C15.2649 37.3327 14.668 36.7357 14.668 35.9993V14.666C14.668 13.9296 15.2649 13.3327 16.0013 13.3327H20.0013Z" fill="white" />
</svg>